<?xml version="1.0" encoding="UTF-8"?>
<svg width="250px" height="250px" viewBox="0 0 250 250" version="1.1" xmlns="http://www.w3.org/2000/svg" xmlns:xlink="http://www.w3.org/1999/xlink">
    <!-- Generator: Sketch 46.2 (44496) - http://www.bohemiancoding.com/sketch -->
    <title>01-assistance-clientele</title>
    <desc>Created with Sketch.</desc>
    <defs></defs>
    <g id="Page-1" stroke="none" stroke-width="1" fill="none" fill-rule="evenodd">
        <g id="01-assistance-clientele">
            <g id="Group-2" transform="translate(74.000000, 52.000000)">
                <rect id="Rectangle" stroke="#000000" stroke-width="10" x="5" y="5" width="93" height="136"></rect>
                <path d="M50,38 L83,38" id="Line" stroke="#000000" stroke-width="10" stroke-linecap="round" stroke-linejoin="round"></path>
                <g id="Group" transform="translate(28.263456, 31.263456) rotate(45.000000) translate(-28.263456, -31.263456) translate(18.763456, 17.763456)" fill="#000000">
                    <rect id="Rectangle-2" x="11.0833333" y="0" width="7.91666667" height="27" rx="3.95833333"></rect>
                    <rect id="Rectangle-2" transform="translate(9.364171, 23.029412) rotate(-90.000000) translate(-9.364171, -23.029412) " x="5.40583814" y="14.2941176" width="7.91666667" height="17.4705882" rx="3.95833333"></rect>
                </g>
                <path d="M50,75.5 L83,75.5" id="Line" stroke="#000000" stroke-width="10" stroke-linecap="round" stroke-linejoin="round"></path>
                <g id="Group" transform="translate(28.263456, 68.763456) rotate(45.000000) translate(-28.263456, -68.763456) translate(18.763456, 55.263456)" fill="#000000">
                    <rect id="Rectangle-2" x="11.0833333" y="0" width="7.91666667" height="27" rx="3.95833333"></rect>
                    <rect id="Rectangle-2" transform="translate(9.364171, 23.029412) rotate(-90.000000) translate(-9.364171, -23.029412) " x="5.40583814" y="14.2941176" width="7.91666667" height="17.4705882" rx="3.95833333"></rect>
                </g>
                <g id="Group-5" transform="translate(12.000000, 90.000000)"></g>
                <path d="M50,113 L83,113" id="Line" stroke="#000000" stroke-width="10" stroke-linecap="round" stroke-linejoin="round"></path>
                <g id="Group" transform="translate(28.263456, 106.263456) rotate(45.000000) translate(-28.263456, -106.263456) translate(18.763456, 92.763456)" fill="#000000">
                    <rect id="Rectangle-2" x="11.0833333" y="0" width="7.91666667" height="27" rx="3.95833333"></rect>
                    <rect id="Rectangle-2" transform="translate(9.364171, 23.029412) rotate(-90.000000) translate(-9.364171, -23.029412) " x="5.40583814" y="14.2941176" width="7.91666667" height="17.4705882" rx="3.95833333"></rect>
                </g>
            </g>
            <g id="Group-5" transform="translate(86.000000, 67.000000)"></g>
            <g id="Group-5" transform="translate(86.000000, 104.500000)"></g>
            <circle id="Oval" stroke="#000000" stroke-width="10" cx="125" cy="125" r="120"></circle>
        </g>
    </g>
</svg>