<?xml version="1.0" encoding="UTF-8"?>
<svg width="250px" height="250px" viewBox="0 0 250 250" version="1.1" xmlns="http://www.w3.org/2000/svg" xmlns:xlink="http://www.w3.org/1999/xlink">
    <!-- Generator: Sketch 46.2 (44496) - http://www.bohemiancoding.com/sketch -->
    <title>02-assistance-online</title>
    <desc>Created with Sketch.</desc>
    <defs></defs>
    <g id="Page-1" stroke="none" stroke-width="1" fill="none" fill-rule="evenodd">
        <g id="02-assistance-online" stroke="#000000" stroke-width="10">
            <circle id="Oval" cx="125" cy="125" r="120"></circle>
            <path d="M63.6186204,115.414806 L83.5485074,103.112989 L139,103.112989 C140.104569,103.112989 141,102.217558 141,101.112989 L141,57 C141,55.8954305 140.104569,55 139,55 L72,55 C70.8954305,55 70,55.8954305 70,57 L70,88.6454221 L69.5567931,89.6267327 L59.5391233,111.806556 L58.4667176,114.12814 C58.2003213,114.704845 58.2237434,115.37381 58.5298218,115.930471 C59.0620208,116.898375 60.2780945,117.251584 61.2459984,116.719385 L63.6186204,115.414806 Z" id="Rectangle-3"></path>
            <path d="M103.61862,193.414806 L123.548507,181.112989 L179,181.112989 C180.104569,181.112989 181,180.217558 181,179.112989 L181,135 C181,133.895431 180.104569,133 179,133 L112,133 C110.895431,133 110,133.895431 110,135 L110,166.645422 L109.556793,167.626733 L99.5391233,189.806556 L98.4667176,192.12814 C98.2003213,192.704845 98.2237434,193.37381 98.5298218,193.930471 C99.0620208,194.898375 100.278094,195.251584 101.245998,194.719385 L103.61862,193.414806 Z" id="Rectangle-3" transform="translate(139.641182, 163.984071) scale(-1, 1) translate(-139.641182, -163.984071) "></path>
        </g>
    </g>
</svg>