<?xml version="1.0" encoding="UTF-8"?>
<svg width="250px" height="250px" viewBox="0 0 250 250" version="1.1" xmlns="http://www.w3.org/2000/svg" xmlns:xlink="http://www.w3.org/1999/xlink">
    <!-- Generator: Sketch 46.2 (44496) - http://www.bohemiancoding.com/sketch -->
    <title>05-relation-privilegiee</title>
    <desc>Created with Sketch.</desc>
    <defs></defs>
    <g id="Page-1" stroke="none" stroke-width="1" fill="none" fill-rule="evenodd">
        <g id="05-relation-privilegiee" stroke="#000000">
            <circle id="Oval" stroke-width="10" cx="125" cy="125" r="120"></circle>
            <g id="Group" transform="translate(125.000000, 125.000000) rotate(-15.000000) translate(-125.000000, -125.000000) translate(45.000000, 76.000000)">
                <g id="vip" stroke-width="10" stroke-linejoin="round">
                    <path d="M0,24.5 L0,0 L160,0 L160,24.5 C152.246154,30.282 147.692308,39.35925 147.692308,49 C147.692308,58.64075 152.246154,67.718 160,73.5 L160,98 L0,98 L0,73.5 C7.75384615,67.718 12.3076923,58.64075 12.3076923,49 C12.3076923,39.35925 7.75384615,30.282 0,24.5 Z" id="Shape" stroke-linecap="round"></path>
                    <path d="M110,0 L110,17.9268293" id="Shape"></path>
                    <path d="M110,31.0731707 L110,43.0243902" id="Shape"></path>
                    <path d="M110,54.9756098 L110,66.9268293" id="Shape"></path>
                    <path d="M110,80.0731707 L110,98" id="Shape"></path>
                </g>
                <path d="M35.0140125,59.3760033 L35.6173467,57.6330379 C36.3771046,55.42825 36.9804328,53.9013084 37.4273492,53.0521672 L47.0806963,33.3879417 L54.1419409,33.3879417 L37.4273492,66.0573708 L29.9638818,66.0573708 L27.1259766,33.3879417 L33.7179612,33.3879417 L34.8575925,53.0521672 L34.9022839,54.2364898 L34.9022839,55.6666153 C34.9022839,57.379795 34.8724899,58.6162453 34.8129011,59.3760033 L35.0140125,59.3760033 Z M63.1472623,66.0573708 L48.6895875,66.0573708 L49.494033,62.1245257 L53.672681,60.2921774 L58.1641688,39.1531351 L54.7676208,37.3207868 L55.5944121,33.3879417 L70.0520869,33.3879417 L69.2252956,37.3207868 L64.9796106,39.1531351 L60.4881227,60.2921774 L63.9740536,62.1245257 L63.1472623,66.0573708 Z M95.6826172,42.9072145 C95.6826172,46.4974433 94.4200972,49.3166989 91.8950192,51.365066 C89.3699413,53.4134331 85.8877695,54.4376012 81.4483994,54.4376012 L77.9624686,54.4376012 L75.5267861,66.0573708 L68.7113443,66.0573708 L75.6161689,33.3879417 L84.7332189,33.3879417 C88.3383449,33.3879417 91.0644944,34.1849307 92.9117491,35.7789327 C94.7590037,37.3729347 95.6826172,39.7490049 95.6826172,42.9072145 Z M79.1914826,48.7617907 L81.9846965,48.7617907 C84.100101,48.7617907 85.7648398,48.2478445 86.9789628,47.2199366 C88.1930859,46.1920288 88.8001383,44.8140571 88.8001383,43.0859802 C88.8001383,41.7005392 88.4388862,40.6838195 87.7163713,40.0357906 C86.9938564,39.3877618 85.9101002,39.0637522 84.4650704,39.0637522 L81.247288,39.0637522 L79.1914826,48.7617907 Z" id="VIP" stroke-width="1.5" fill="#000000"></path>
            </g>
        </g>
    </g>
</svg>