<?xml version="1.0" encoding="UTF-8"?>
<svg width="250px" height="250px" viewBox="0 0 250 250" version="1.1" xmlns="http://www.w3.org/2000/svg" xmlns:xlink="http://www.w3.org/1999/xlink">
    <!-- Generator: Sketch 46.2 (44496) - http://www.bohemiancoding.com/sketch -->
    <title>06-vip</title>
    <desc>Created with Sketch.</desc>
    <defs></defs>
    <g id="Page-1" stroke="none" stroke-width="1" fill="none" fill-rule="evenodd">
        <g id="06-vip" stroke="#000000">
            <circle id="Oval" stroke-width="10" cx="125" cy="125" r="120"></circle>
            <g id="hand" transform="translate(40.000000, 63.000000)" stroke-width="2" fill="#000000" fill-rule="nonzero">
                <path d="M172.205552,46.9044163 L126.252427,1.10849796 C125.238755,0.0982938776 123.443609,0.0982938776 122.429938,1.10849796 L105.76355,17.7192163 L102.776867,20.4141714 C98.9149125,23.8960082 95.3327313,24.2483673 90.7976984,24.6958204 C88.3454234,24.9366531 85.8112438,25.1863755 83.0432438,25.9651755 C80.9285891,26.5594449 79.0518094,27.2065143 77.361275,27.9015347 L50.5673594,1.10715102 C49.5536875,0.0969469388 47.7585422,0.0969469388 46.7448703,1.10715102 L0.791745312,46.9044163 C-0.264095313,47.9566449 -0.264095313,49.6613306 0.791745312,50.7138286 L17.529225,67.394049 C18.0360609,67.899151 18.7237359,68.1833551 19.4403344,68.1833551 C20.1569328,68.1833551 20.8446078,67.899151 21.3514438,67.394049 L23.3090469,65.4431429 L29.5013656,71.7190694 C28.9477656,72.0781633 28.4247109,72.4911347 27.9484203,72.9660653 L27.5578187,73.3553306 C25.6069734,75.299502 24.5314,77.8907429 24.5314,80.6557388 C24.5314,83.4207347 25.6058922,86.0146694 27.5564672,87.9585714 C29.5773234,89.9711673 32.2301703,90.9786776 34.8830172,90.9786776 C35.0227687,90.9786776 35.1606281,90.9444653 35.3001094,90.9388082 C35.2871344,91.1521633 35.2382078,91.3577061 35.2382078,91.5732163 C35.2382078,94.3382122 36.3127,96.9294531 38.2646266,98.876049 C40.2841312,100.888645 42.9369781,101.896155 45.5900953,101.896155 C45.7676906,101.896155 45.9428531,101.854669 46.1201781,101.84578 C46.1115281,102.02142 46.0690891,102.189788 46.0690891,102.367045 C46.0690891,105.132041 47.1435813,107.723282 49.0955078,109.669878 C51.1150125,111.682473 53.7678594,112.689984 56.4220578,112.689984 C56.5993828,112.689984 56.7740047,112.648498 56.9507891,112.639608 C56.9421391,112.815249 56.8997,112.983886 56.8997,113.160873 C56.8997,115.925869 57.9752734,118.519804 59.9261187,120.463706 C61.9456234,122.476302 64.5984703,123.483812 67.2515875,123.483812 C69.9057859,123.483812 72.5602547,122.476302 74.5808406,120.461012 L75.3120359,119.732318 C75.7093953,119.336318 76.0448531,118.897216 76.3678766,118.45138 L85.6544625,127.663902 C87.6342312,129.636898 90.2370703,130.62609 92.8372063,130.62609 C95.4373422,130.62609 98.0374781,129.639592 100.017247,127.666596 C102.106492,125.583151 103.061506,122.812767 102.945812,120.07929 C103.085023,120.084947 103.222342,120.11889 103.361823,120.11889 C105.961959,120.11889 108.562095,119.132392 110.541864,117.159396 C112.455677,115.254824 113.509084,112.71342 113.509084,110.001224 C113.509084,109.855755 113.473403,109.717559 113.467456,109.573167 C113.612073,109.579363 113.755069,109.614384 113.899956,109.614384 C116.502795,109.614384 119.105634,108.627886 121.085403,106.65489 C123.175189,104.570906 124.129662,101.800522 124.013969,99.0662367 C124.157775,99.0724327 124.299419,99.1071837 124.443225,99.1071837 C127.046064,99.1071837 129.6462,98.1206857 131.625969,96.1476898 C135.577127,92.210049 135.582262,85.8093959 131.648405,81.861249 L148.940836,64.6977469 L151.645853,67.3935102 C152.152689,67.8986122 152.839012,68.1828163 153.556962,68.1828163 C154.274912,68.1828163 154.961236,67.8986122 155.468072,67.3935102 L172.2042,50.7132898 C173.261392,49.6616 173.261392,47.9566449 172.205552,46.9044163 Z M6.52561406,48.8089878 L48.65625,6.82113469 L61.5712406,19.6919429 L19.4406047,61.6800653 L6.52561406,48.8089878 Z M31.3789562,84.1491592 C30.4496219,83.2230041 29.93765,81.9813959 29.93765,80.6581633 C29.93765,79.3322367 30.4498922,78.0906286 31.3803078,77.1644735 L31.7709094,76.7752082 C32.701325,75.8466286 33.9461141,75.3361388 35.2752406,75.3361388 C36.6057187,75.3361388 37.8488859,75.8466286 38.7795719,76.7752082 C39.7099875,77.7013633 40.2222297,78.9429714 40.2222297,80.2662041 C40.2222297,81.5918612 39.7105281,82.8302367 38.7801125,83.7590857 L38.3887,84.1491592 C36.4575875,86.0750122 33.3125016,86.0747429 31.3789562,84.1491592 Z M42.0871156,95.0666367 C41.1567,94.1380571 40.6444578,92.8988735 40.6444578,91.5729469 C40.6444578,90.2497143 41.1567,89.0081061 42.0871156,88.081951 L42.2109187,87.9585714 L42.2111891,87.958302 L42.6017906,87.5690367 C42.6020609,87.5687673 42.6020609,87.568498 42.6023312,87.568498 L47.8272016,82.3604245 C48.7932984,81.3976327 50.0629562,80.9162367 51.3315328,80.9162367 C52.6011906,80.9162367 53.8697672,81.3976327 54.8358641,82.3604245 C55.7651984,83.2890041 56.2785219,84.5281878 56.2785219,85.8541143 C56.2785219,87.1773469 55.7662797,88.4189551 54.8358641,89.3451102 L49.0957781,95.0669061 C47.1646656,96.9951837 44.0209312,96.9924898 42.0871156,95.0666367 Z M52.9182672,105.860735 C51.9889328,104.932155 51.4756094,103.692971 51.4756094,102.367045 C51.4756094,101.043812 51.9878516,99.8022041 52.9182672,98.876049 L56.3288,95.4798776 C57.2581344,94.551298 58.5013016,94.0408082 59.8317797,94.0408082 C61.1609062,94.0408082 62.405425,94.551298 63.3361109,95.4798776 C65.2672234,97.4054612 65.2672234,100.53871 63.3347594,102.464563 L60.658125,105.132041 L59.9269297,105.860735 C57.9958172,107.786318 54.8518125,107.786318 52.9182672,105.860735 Z M71.4890063,115.925869 L70.7578109,116.654563 C68.8256172,118.582841 65.6816125,118.580147 63.7491484,116.654563 C62.8187328,115.728408 62.3064906,114.4868 62.3064906,113.160873 C62.3064906,111.839796 62.8173813,110.600073 63.7464453,109.672033 C63.7472563,109.671224 63.7483375,109.670686 63.7491484,109.669878 L64.4903453,108.931486 C65.4556313,107.973812 66.7212344,107.494302 67.9871078,107.494302 C69.2554141,107.494302 70.5239906,107.975698 71.4900875,108.93849 C72.4205031,109.867069 72.9327453,111.106253 72.9327453,112.43218 C72.9327453,113.755412 72.4205031,114.99702 71.4900875,115.923176 C71.4903578,115.923176 71.4890063,115.923176 71.4890063,115.925869 Z M127.804561,92.3385469 C125.948866,94.1852 122.936773,94.1852 121.086214,92.3385469 L111.450925,82.7389143 C110.395084,81.6866857 108.684547,81.6866857 107.628436,82.7389143 C106.572325,83.7911429 106.572595,85.4958286 107.628436,86.5483265 L117.263725,96.1479592 C119.116717,97.9946122 119.114284,100.999094 117.263725,102.845747 C115.410733,104.6924 112.395938,104.6924 110.542945,102.845747 L100.910359,93.2434204 C99.8545188,92.1911918 98.1439813,92.1911918 97.0878703,93.2434204 C96.0317594,94.295649 96.0320297,96.0003347 97.0878703,97.0528327 L106.720456,106.655159 C107.612758,107.544408 108.103645,108.733486 108.103645,110.001494 C108.103645,111.272196 107.612758,112.461273 106.720456,113.350522 C104.882061,115.185053 101.903758,115.189363 100.049684,113.389045 C100.03752,113.376922 100.029952,113.362376 100.018058,113.350522 L90.3854719,103.75089 C89.8556594,103.22289 89.1606859,102.961045 88.4662531,102.9632 C87.7720906,102.961314 87.0771172,103.22289 86.5470344,103.75089 C85.4911938,104.803118 85.4911938,106.507804 86.5470344,107.560302 L96.1796203,117.159935 C96.1942172,117.174482 96.2120578,117.18391 96.226925,117.198457 C98.0415328,119.048073 98.0339641,122.023192 96.1952984,123.857722 C94.3474422,125.699257 91.33535,125.701951 89.4718156,123.84991 L78.3054766,112.770531 C78.3089906,112.65631 78.3384547,112.547478 78.3384547,112.432449 C78.3384547,109.667453 77.2639625,107.076212 75.3120359,105.129616 C73.7055688,103.528106 71.6957953,102.591714 69.60655,102.264408 C70.8191719,98.6629633 70.0301297,94.533249 67.1577891,91.6707347 C65.536725,90.0552163 63.4017969,89.1514204 61.1855047,88.8785306 C61.4831188,87.9065796 61.6842313,86.9006857 61.6842313,85.8541143 C61.6842313,83.0891184 60.6097391,80.4978776 58.6578125,78.5512816 C54.9972406,74.9043102 49.2766172,74.5969388 45.2251734,77.5585878 C44.7591547,75.8404327 43.8941547,74.2540082 42.6026016,72.9663347 C40.6944656,71.0647265 38.0794625,70.1067837 35.4501328,70.0650286 L27.1312656,61.6337306 L65.3807547,23.5142857 L72.2758859,30.4415918 C68.0560375,32.9695265 65.1496375,35.9174367 61.9964422,39.1304245 C61.3417453,39.7974286 60.6713703,40.4814041 59.9677469,41.182351 L56.7431891,44.3972245 C54.7739625,46.3597143 53.6889281,48.9773551 53.6889281,51.7671347 C53.6889281,54.5569143 54.7739625,57.175902 56.7431891,59.1370449 C58.7110641,61.0995347 61.3376906,62.1808571 64.1383984,62.1822041 C64.1383984,62.1822041 64.1383984,62.1822041 64.13975,62.1822041 C66.9391063,62.1822041 69.5643813,61.1008816 71.5338781,59.1383918 L79.8900484,50.8108082 C82.0611984,48.6522041 85.1643859,50.1532327 92.2573859,54.3729224 C95.0064641,56.0086449 98.1485766,57.8588 101.662639,59.5101469 L127.804561,85.6431837 C129.657553,87.4901061 129.657553,90.4918939 127.804561,92.3385469 Z M127.832944,78.0410612 L113.114158,63.3257551 C115.472094,63.7812898 117.927883,64.0830041 120.5291,64.0830041 C121.302464,64.0830041 122.089073,64.059298 122.886495,64.0105388 C124.375377,63.9197551 125.510419,62.6425878 125.417972,61.1574531 C125.328228,59.6723184 124.108578,58.5306531 122.553741,58.6332898 C111.123577,59.3291184 102.203805,54.0162531 95.0261969,49.7467265 C88.0361859,45.587649 81.4262344,41.6572816 76.0672891,47.0016653 L67.7111187,55.329249 C66.7634031,56.2737224 65.4950969,56.794449 64.1381281,56.794449 C62.7825109,56.794449 61.5142047,56.2734531 60.5651375,55.327902 C59.6160703,54.382351 59.0949078,53.1181143 59.0949078,51.7671347 C59.0949078,50.4161551 59.6176922,49.1521878 60.5651375,48.2063673 L63.7896953,44.9914939 C64.5076453,44.276 65.1926172,43.5788245 65.8605594,42.8975429 C70.9791969,37.6821959 74.6759906,33.9148082 84.5105,31.1500816 C86.8189688,30.5016653 89.1104078,30.2753796 91.3277813,30.0569061 C96.1928656,29.5782041 101.221759,29.0822612 106.40338,24.4073061 L107.51058,23.4086857 L145.117536,60.8869878 L127.832944,78.0410612 Z M153.558044,61.6800653 L150.870597,59.0018122 C150.867083,58.9983102 150.866272,58.9934612 150.862758,58.9902286 C150.859244,58.9869959 150.854378,58.9859184 150.850864,58.9824163 L111.427408,19.6932898 L124.341047,6.82248163 L166.471953,48.8089878 L153.558044,61.6800653 Z" id="Shape"></path>
            </g>
        </g>
    </g>
</svg>