<?xml version="1.0" encoding="UTF-8"?>
<svg width="250px" height="250px" viewBox="0 0 250 250" version="1.1" xmlns="http://www.w3.org/2000/svg" xmlns:xlink="http://www.w3.org/1999/xlink">
    <!-- Generator: Sketch 46.2 (44496) - http://www.bohemiancoding.com/sketch -->
    <title>07-offre-complete</title>
    <desc>Created with Sketch.</desc>
    <defs></defs>
    <g id="Page-1" stroke="none" stroke-width="1" fill="none" fill-rule="evenodd">
        <g id="07-offre-complete" stroke="#000000" stroke-width="10">
            <circle id="Oval" cx="125" cy="125" r="120"></circle>
            <rect id="Rectangle-6" x="26" y="137" width="17" height="14" rx="7"></rect>
            <rect id="Rectangle-6" x="59.25" y="127" width="27" height="24" rx="7"></rect>
            <rect id="Rectangle-6" x="102.5" y="117" width="37" height="34" rx="15"></rect>
            <rect id="Rectangle-6" x="155.75" y="100" width="17" height="51" rx="7"></rect>
            <path d="M191,127 C189.895431,127 189,127.895431 189,129 L189,149 C189,150.104569 189.895431,151 191,151 L224,151 C225.104569,151 226,150.104569 226,149 L226,129 C226,127.895431 225.104569,127 224,127 L191,127 Z" id="Rectangle-6"></path>
            <circle id="Oval-2" cx="121" cy="49" r="10"></circle>
            <circle id="Oval-2" cx="121" cy="88" r="15"></circle>
            <ellipse id="Oval-2" cx="121" cy="183" rx="11" ry="17"></ellipse>
        </g>
    </g>
</svg>