<?xml version="1.0" encoding="UTF-8"?>
<svg width="250px" height="250px" viewBox="0 0 250 250" version="1.1" xmlns="http://www.w3.org/2000/svg" xmlns:xlink="http://www.w3.org/1999/xlink">
    <!-- Generator: Sketch 46.2 (44496) - http://www.bohemiancoding.com/sketch -->
    <title>08-services</title>
    <desc>Created with Sketch.</desc>
    <defs></defs>
    <g id="Page-1" stroke="none" stroke-width="1" fill="none" fill-rule="evenodd">
        <g id="08-services" stroke="#000000">
            <circle id="Oval" stroke-width="10" cx="125" cy="125" r="120"></circle>
            <g id="tool" transform="translate(63.000000, 63.000000)" stroke-width="2" fill="#000000" fill-rule="nonzero">
                <path d="M92.349802,0.260826 C83.056882,-0.33486 73.536742,2.930122 66.449802,10.017076 C57.734102,18.732412 55.151942,31.026288 58.049802,42.173326 L5.11230242,95.154548 C-1.41785758,101.684288 -1.41757758,112.380988 5.11230242,118.910728 C11.642042,125.440608 22.338742,125.440468 28.868482,118.910728 L81.849802,65.929548 C92.993522,68.821808 105.294202,66.241608 114.006122,57.529576 C123.455562,48.080388 126.036462,34.358078 121.837302,22.529576 C121.355126,21.1760439 120.214543,20.1628898 118.813596,19.8436867 C117.41265,19.5244837 115.945743,19.9435262 114.924802,20.954576 L103.112302,32.767076 C99.770362,36.109002 94.554242,36.109002 91.212302,32.767076 C87.870362,29.425108 87.870362,24.25271 91.212302,20.910826 L103.024802,9.098326 C104.057052,8.07845647 104.489794,6.59802656 104.169355,5.182755 C103.848916,3.76748344 102.820686,2.61783958 101.449802,2.142076 C98.492582,1.092286 95.447442,0.459388 92.349802,0.260826 L92.349802,0.260826 Z M91.562302,8.660826 L85.262302,14.960826 C78.732562,21.490678 78.732562,32.18728 85.262302,38.717076 C91.792042,45.246942 102.488742,45.246914 109.018482,38.717076 L115.318482,32.460826 C115.701102,39.338494 113.332722,46.303046 108.056122,51.579576 C100.931102,58.704708 90.687722,60.638808 81.806122,57.485826 C80.2841213,56.9373651 78.5824126,57.3117411 77.431122,58.448326 L22.918482,112.960728 C19.576402,116.302808 14.360422,116.302668 11.018482,112.960728 C7.676542,109.618788 7.676402,104.402668 11.018482,101.060728 L65.531122,46.592076 C66.6830431,45.4503046 67.0746926,43.7473621 66.537302,42.217076 C63.384362,33.335392 65.274502,23.09218 72.399802,15.967076 C77.676822,10.690042 84.684102,8.277786 91.562302,8.660826 L91.562302,8.660826 Z" id="Shape"></path>
            </g>
        </g>
    </g>
</svg>