<?xml version="1.0" encoding="UTF-8"?>
<svg width="250px" height="250px" viewBox="0 0 250 250" version="1.1" xmlns="http://www.w3.org/2000/svg" xmlns:xlink="http://www.w3.org/1999/xlink">
    <!-- Generator: Sketch 46.2 (44496) - http://www.bohemiancoding.com/sketch -->
    <title>09-europe</title>
    <desc>Created with Sketch.</desc>
    <defs></defs>
    <g id="Page-1" stroke="none" stroke-width="1" fill="none" fill-rule="evenodd">
        <g id="09-europe" stroke="#000000">
            <circle id="Oval" stroke-width="10" cx="125" cy="125" r="120"></circle>
            <polygon id="Star" stroke-width="2.28000001" fill="#000000" points="127 53.5 118.183221 58.1352549 119.867076 48.3176275 112.734152 41.3647451 122.591611 39.9323725 127 31 131.408389 39.9323725 141.265848 41.3647451 134.132924 48.3176275 135.816779 58.1352549"></polygon>
            <polygon id="Star" stroke-width="2.28000001" fill="#000000" points="127 215.5 118.183221 220.135255 119.867076 210.317627 112.734152 203.364745 122.591611 201.932373 127 193 131.408389 201.932373 141.265848 203.364745 134.132924 210.317627 135.816779 220.135255"></polygon>
            <polygon id="Star" stroke-width="2.28000001" fill="#000000" points="198 173.5 189.183221 178.135255 190.867076 168.317627 183.734152 161.364745 193.591611 159.932373 198 151 202.408389 159.932373 212.265848 161.364745 205.132924 168.317627 206.816779 178.135255"></polygon>
            <polygon id="Star" stroke-width="2.28000001" fill="#000000" points="167 201.5 158.183221 206.135255 159.867076 196.317627 152.734152 189.364745 162.591611 187.932373 167 179 171.408389 187.932373 181.265848 189.364745 174.132924 196.317627 175.816779 206.135255"></polygon>
            <polygon id="Star" stroke-width="2.28000001" fill="#000000" points="198 92.5 189.183221 97.1352549 190.867076 87.3176275 183.734152 80.3647451 193.591611 78.9323725 198 70 202.408389 78.9323725 212.265848 80.3647451 205.132924 87.3176275 206.816779 97.1352549"></polygon>
            <polygon id="Star" stroke-width="2.28000001" fill="#000000" points="209 134.5 200.183221 139.135255 201.867076 129.317627 194.734152 122.364745 204.591611 120.932373 209 112 213.408389 120.932373 223.265848 122.364745 216.132924 129.317627 217.816779 139.135255"></polygon>
            <polygon id="Star" stroke-width="2.28000001" fill="#000000" points="167 64.5 158.183221 69.1352549 159.867076 59.3176275 152.734152 52.3647451 162.591611 50.9323725 167 42 171.408389 50.9323725 181.265848 52.3647451 174.132924 59.3176275 175.816779 69.1352549"></polygon>
            <g id="Group" transform="translate(65.500000, 126.000000) scale(-1, 1) translate(-65.500000, -126.000000) translate(29.000000, 42.000000)" stroke-width="2.28000001" fill="#000000">
                <polygon id="Star" points="46.4545455 131.932203 37.5385302 136.625072 39.2413376 126.685417 32.0281297 119.646115 41.9965378 118.195939 46.4545455 109.152542 50.9125531 118.195939 60.8809612 119.646115 53.6677533 126.685417 55.3705607 136.625072"></polygon>
                <polygon id="Star" points="15.1688312 160.40678 6.25281591 165.099648 7.9556233 155.159993 0.742415441 148.120691 10.7108235 146.670515 15.1688312 137.627119 19.6268388 146.670515 29.5952469 148.120691 22.382039 155.159993 24.0848464 165.099648"></polygon>
                <polygon id="Star" points="46.4545455 51.2542373 37.5385302 55.9471055 39.2413376 46.0074511 32.0281297 38.9681487 41.9965378 37.5179727 46.4545455 28.4745763 50.9125531 37.5179727 60.8809612 38.9681487 53.6677533 46.0074511 55.3705607 55.9471055"></polygon>
                <polygon id="Star" points="57.8311688 93.0169492 48.9151536 97.7098174 50.617961 87.7701629 43.4047531 80.7308606 53.3731612 79.2806845 57.8311688 70.2372881 62.2891765 79.2806845 72.2575846 80.7308606 65.0443767 87.7701629 66.7471841 97.7098174"></polygon>
                <polygon id="Star" points="15.1688312 22.779661 6.25281591 27.4725293 7.9556233 17.5328748 0.742415441 10.4935724 10.7108235 9.04339638 15.1688312 0 19.6268388 9.04339638 29.5952469 10.4935724 22.382039 17.5328748 24.0848464 27.4725293"></polygon>
            </g>
        </g>
    </g>
</svg>