<?xml version="1.0" standalone="no"?>
<!DOCTYPE svg PUBLIC "-//W3C//DTD SVG 20010904//EN"
 "http://www.w3.org/TR/2001/REC-SVG-20010904/DTD/svg10.dtd">
<svg version="1.0" xmlns="http://www.w3.org/2000/svg"
 width="500.000000pt" height="500.000000pt" viewBox="0 0 500.000000 500.000000"
 preserveAspectRatio="xMidYMid meet">
<metadata>
Created by potrace 1.11, written by Peter Selinger 2001-2013
</metadata>
<g transform="translate(0.000000,500.000000) scale(0.100000,-0.100000)"
fill="#000000" stroke="none">
<path d="M0 2500 l0 -2500 2500 0 2500 0 0 2500 0 2500 -2500 0 -2500 0 0
-2500z m4400 432 c0 -361 -4 -651 -10 -699 -16 -124 -46 -229 -93 -328 -109
-225 -282 -361 -557 -438 -71 -19 -105 -21 -617 -24 l-543 -4 0 110 0 111 418
0 c579 0 683 11 841 85 54 26 92 54 145 108 80 81 123 157 158 284 21 75 22
98 26 631 l3 552 -1423 0 c-886 0 -1449 -4 -1492 -10 -353 -51 -596 -323 -596
-666 l0 -64 -41 0 -42 0 7 94 c12 172 72 357 157 483 130 194 355 332 609 373
41 6 82 13 90 15 8 1 678 3 1488 4 l1472 1 0 -618z m-2040 -102 l0 -110 -347
0 c-365 -1 -475 -8 -523 -37 -54 -31 -64 -70 -68 -255 l-4 -168 281 0 c235 0
287 3 321 16 41 16 71 50 84 92 7 21 5 22 -59 22 l-66 0 3 93 3 92 190 0 190
0 -3 -60 c-16 -275 -119 -433 -310 -474 -34 -7 -196 -11 -457 -11 l-405 0 0
273 c0 289 6 341 51 429 29 56 104 129 164 158 91 44 136 48 558 49 l397 1 0
-110z m1306 83 c63 -33 100 -83 114 -149 21 -101 -7 -206 -66 -253 l-27 -21
27 -21 c50 -39 70 -94 71 -190 0 -78 -3 -90 -30 -135 -19 -30 -49 -60 -79 -79
l-49 -30 -519 -3 -518 -3 0 456 0 456 518 -3 c510 -3 518 -3 558 -25z m-2338
-1341 c3 -81 2 -83 -28 -114 -23 -23 -34 -28 -43 -19 -8 8 -5 16 11 31 32 30
28 47 -8 42 -54 -8 -91 47 -69 101 14 34 39 45 94 43 l40 -2 3 -82z m230 70
c2 -7 -5 -12 -17 -12 -26 0 -41 -28 -41 -79 0 -30 -4 -41 -15 -41 -12 0 -15
15 -15 74 l0 74 42 -2 c23 -1 44 -8 46 -14z m227 6 c40 -18 50 -84 18 -120
-24 -27 -88 -24 -107 4 -25 35 -20 83 10 107 31 24 43 26 79 9z m215 -49 c0
-60 0 -60 28 -57 26 3 27 6 30 61 3 49 6 57 22 57 18 0 20 -7 20 -74 l0 -74
-55 -1 c-72 0 -85 13 -85 90 0 52 2 59 20 59 18 0 20 -7 20 -61z m250 49 c0
-9 3 -9 12 0 32 32 98 -10 98 -64 0 -47 -31 -77 -76 -72 l-34 4 0 -43 c0 -32
-4 -43 -15 -43 -12 0 -15 19 -15 115 0 96 3 115 15 115 8 0 15 -5 15 -12z"/>
<path d="M2830 2485 l0 -235 335 0 c322 0 336 1 355 20 12 12 20 33 20 55 0
22 -8 43 -20 55 -19 19 -33 20 -280 20 l-260 0 0 85 0 85 260 0 c247 0 261 1
280 20 20 20 27 74 12 97 -18 29 -70 33 -383 33 l-319 0 0 -235z"/>
<path d="M1232 1618 c-28 -28 -8 -82 29 -76 21 3 24 8 24 43 0 32 -4 41 -20
43 -11 1 -26 -3 -33 -10z"/>
<path d="M1718 1605 c-15 -34 -1 -59 35 -63 21 -3 28 2 33 24 14 55 -45 89
-68 39z"/>
<path d="M2261 1616 c-7 -8 -11 -27 -9 -43 2 -23 8 -28 32 -28 33 0 48 27 35
63 -9 25 -41 29 -58 8z"/>
</g>
</svg>
