<?xml version="1.0" encoding="UTF-8"?>
<svg width="500px" height="500px" viewBox="0 0 500 500" version="1.1" xmlns="http://www.w3.org/2000/svg" xmlns:xlink="http://www.w3.org/1999/xlink">
    <!-- Generator: Sketch 46.2 (44496) - http://www.bohemiancoding.com/sketch -->
    <title>logo-gregoire-besson-greygradient-onwhite</title>
    <desc>Created with Sketch.</desc>
    <defs>
        <path d="M258.3945,261.283 C258.3925,264.394 257.9245,266.524 256.5405,267.903 C255.1395,269.272 253.0405,269.677 250.1145,269.68 L232.4615,269.68 L232.4615,261.438 C232.4625,258.389 232.8885,256.248 234.2485,254.829 C235.6225,253.422 237.7275,252.965 240.7435,252.961 L258.3945,252.961 L258.3945,261.283 Z M240.5875,246.049 L265.5785,246.049 L265.5785,261.438 C265.5815,266.136 264.2025,269.971 261.5585,272.617 C258.9225,275.261 255.0735,276.671 250.2835,276.671 L225.2765,276.671 L225.2765,261.283 C225.2745,256.691 226.6965,252.863 229.3535,250.191 C232.0065,247.518 235.8625,246.046 240.5875,246.049 Z M76.9054,261.1016 C79.3164,262.2976 80.6764,264.9186 80.6364,268.6236 C80.6414,271.2006 79.9284,273.2586 78.4344,274.6426 C76.9414,276.0246 74.7664,276.6706 72.0034,276.6706 L40.3004,276.6706 L40.3004,246.0516 L72.0034,246.0516 C74.7664,246.0516 76.9414,246.6946 78.4344,248.0776 C79.9284,249.4596 80.6414,251.5216 80.6404,254.0996 C80.6824,257.5356 79.3204,259.9736 76.9054,261.1016 Z M47.4804,269.8386 L70.0944,269.8386 C70.9774,269.8386 71.7404,269.6326 72.2884,269.1216 C72.8374,268.6076 73.0704,267.8596 73.0664,267.0226 C73.0664,266.0996 72.8504,265.2966 72.3164,264.7206 C71.7814,264.1416 70.9904,263.8866 70.0944,263.8946 L53.6984,263.8946 L53.6984,258.8296 L70.0944,258.8296 C70.9904,258.8316 71.7814,258.5766 72.3164,257.9976 C72.8504,257.4236 73.0664,256.6236 73.0664,255.6986 C73.0704,254.8786 72.8334,254.1366 72.2884,253.6306 C71.7394,253.1246 70.9774,252.9196 70.0944,252.9226 L47.4804,252.9226 L47.4804,269.8386 Z M171.7587,258.6287 L171.7617,263.6647 C171.7637,267.9017 170.6017,271.2007 168.2057,273.4067 C165.8187,275.6117 162.2997,276.6677 157.7527,276.6677 L134.4267,276.6677 L134.4267,269.6797 L135.6087,269.6797 L159.2597,269.6807 C162.4187,269.7347 164.4017,267.8097 164.8407,264.7737 L164.9527,264.0847 L134.4267,264.0847 L134.4267,259.0567 C134.4187,254.8197 135.5837,251.5187 137.9777,249.3107 C140.3677,247.1037 143.8917,246.0517 148.4477,246.0517 L171.6037,246.0517 L171.6037,252.9607 L146.9247,252.9607 C143.7107,252.8957 141.6127,254.7517 141.2617,257.9667 L141.1737,258.6307 L170.5777,258.6307 L171.7587,258.6287 Z M217.1425,258.6287 L217.1445,263.6647 C217.1475,267.9017 215.9845,271.2007 213.5905,273.4067 C211.2055,275.6117 207.6855,276.6677 203.1375,276.6677 L179.8085,276.6677 L179.8085,269.6797 L180.9915,269.6797 L204.6445,269.6807 C207.8055,269.7347 209.7865,267.8097 210.2255,264.7737 L210.3375,264.0847 L179.8085,264.0847 L179.8085,259.0567 C179.8025,254.8197 180.9665,251.5187 183.3615,249.3107 C185.7535,247.1037 189.2745,246.0517 193.8295,246.0517 L216.9875,246.0517 L216.9875,252.9607 L192.3075,252.9607 C189.0955,252.8957 186.9965,254.7517 186.6475,257.9667 L186.5585,258.6307 L215.9605,258.6307 L217.1425,258.6287 Z M306.8066,246.0515 L315.0166,246.0515 L315.0166,276.6695 L306.5506,276.6695 L306.3736,276.4255 C298.3276,265.3835 290.5776,258.3635 283.1266,255.5065 C282.7976,255.3745 282.4426,255.2505 282.0486,255.1135 C282.0836,255.6815 282.1036,256.0835 282.1046,256.3255 L282.1046,276.6695 L273.9356,276.6695 L273.9356,246.0515 L280.7896,246.0515 L280.8736,246.0775 C290.4256,249.1745 299.3136,256.0725 306.6606,264.0455 L306.8086,264.2065 C306.8076,264.1135 306.8066,264.0205 306.8066,263.9355 L306.8066,246.0515 Z M104.1503,253.0584 C99.6493,253.0064 97.1283,254.8824 96.2823,257.9744 L96.0663,258.7284 L121.5193,258.7284 L121.5193,264.1824 L95.8733,264.1824 L95.8733,269.7764 L127.2703,269.7764 L127.2703,276.7654 L88.6863,276.7654 L88.6863,261.3774 C88.6843,256.7494 90.1363,252.9164 92.8053,250.2574 C95.4773,247.5954 99.3303,246.1454 103.9963,246.1464 L127.2703,246.1464 L127.2703,253.0564 L126.0863,253.0584 L104.1503,253.0584 Z M33.6484,208.1794 L46.1054,208.1794 C45.6534,215.0704 44.3944,219.5454 41.9144,222.3704 C39.3594,225.2664 35.6114,226.2154 30.6384,226.2154 L6.2714,226.2154 L6.2714,210.8264 C6.2684,206.1304 7.6364,202.2954 10.2724,199.6504 C12.9114,197.0034 16.7654,195.5934 21.5784,195.5934 L45.9454,195.5934 L45.9454,202.5044 L44.7624,202.5054 L21.6974,202.5054 C18.6264,202.5074 16.5144,202.9664 15.1524,204.3964 C13.8054,205.8364 13.4184,207.9994 13.4154,211.1014 L13.4154,219.2274 L30.4814,219.2274 C35.0514,219.3064 37.3134,217.6774 38.1194,214.3764 L38.3154,213.6334 L33.6484,213.6334 L33.6484,208.1794 Z M175.7353,208.1794 L188.1933,208.1794 C187.7433,215.0704 186.4843,219.5454 184.0013,222.3704 C181.4463,225.2664 177.6983,226.2154 172.7263,226.2154 L148.3583,226.2154 L148.3583,210.8264 C148.3553,206.1304 149.7243,202.2954 152.3613,199.6504 C154.9963,197.0034 158.8523,195.5934 163.6653,195.5934 L188.0323,195.5934 L188.0323,202.5044 L186.8523,202.5054 L163.7843,202.5054 C160.7153,202.5074 158.6033,202.9664 157.2403,204.3964 C155.8933,205.8364 155.5063,207.9994 155.5033,211.1014 L155.5033,219.2274 L172.5673,219.2274 C177.1393,219.3064 179.4003,217.6774 180.2063,214.3764 L180.4013,213.6334 L175.7353,213.6334 L175.7353,208.1794 Z M84.4579,214.5466 L95.8129,226.2156 L85.4989,226.2156 L74.1379,214.8146 L67.2159,214.8146 L67.2159,208.1796 L82.1519,208.1796 L82.1519,208.1756 C85.3139,208.2336 87.2949,206.3026 87.7299,203.1896 L87.8389,202.5056 L62.7159,202.5056 L62.7159,226.2146 L54.3479,226.2146 L54.3479,195.5936 L94.6479,195.5936 L94.6479,201.8076 C94.7179,209.0436 91.1359,213.4936 84.4579,214.5466 Z M292.0566,214.5466 L303.4166,226.2156 L293.0996,226.2156 L281.7386,214.8146 L274.8156,214.8146 L274.8156,208.1796 L289.7526,208.1796 L289.7526,208.1756 C292.9136,208.2336 294.8956,206.3026 295.3306,203.1896 L295.4406,202.5056 L270.3156,202.5056 L270.3156,226.2146 L261.9496,226.2146 L261.9496,195.5936 L302.2496,195.5936 L302.2496,201.8076 C302.3156,209.0436 298.7376,213.4936 292.0566,214.5466 Z M127.9706,188.1697 L127.9706,193.0987 L116.9956,193.1007 L116.1806,193.1007 L114.9996,193.1007 L114.9996,192.0367 L127.9706,188.1697 Z M211.4311,195.5939 L236.4271,195.5939 L236.4271,210.9849 C236.4281,215.6829 235.0491,219.5169 232.4031,222.1619 C229.7701,224.8069 225.9181,226.2159 221.1291,226.2159 L196.1251,226.2159 L196.1251,210.8279 C196.1201,206.2399 197.5431,202.4099 200.2001,199.7379 C202.8541,197.0639 206.7091,195.5919 211.4311,195.5939 Z M229.2411,210.8279 L229.2411,202.5059 L211.5911,202.5059 C208.5761,202.5099 206.4691,202.9669 205.0951,204.3759 C203.7331,205.7949 203.3101,207.9349 203.3071,210.9849 L203.3071,219.2269 L220.9621,219.2269 C223.8871,219.2219 225.9841,218.8179 227.3871,217.4509 C228.7711,216.0699 229.2371,213.9389 229.2411,210.8279 Z M118.2236,202.6033 C113.7246,202.5523 111.2016,204.4273 110.3566,207.5203 L110.1376,208.2753 L135.5916,208.2753 L135.5916,213.7283 L109.9436,213.7283 L109.9436,219.3243 L141.3416,219.3243 L141.3416,226.3123 L102.7606,226.3123 L102.7606,210.9243 C102.7556,206.2963 104.2086,202.4623 106.8796,199.8043 C109.5506,197.1423 113.4006,195.6903 118.0676,195.6923 L141.3416,195.6923 L141.3416,202.6033 L140.1596,202.6033 L118.2236,202.6033 Z M324.9267,202.6033 C320.4267,202.5523 317.9037,204.4273 317.0577,207.5203 L316.8417,208.2753 L342.2947,208.2753 L342.2947,213.7283 L316.6487,213.7283 L316.6487,219.3243 L348.0457,219.3243 L348.0457,226.3123 L309.4627,226.3123 L309.4627,210.9243 C309.4607,206.2963 310.9117,202.4623 313.5837,199.8043 C316.2527,197.1423 320.1057,195.6903 324.7717,195.6923 L348.0457,195.6923 L348.0457,202.6033 L346.8617,202.6033 L324.9267,202.6033 Z M244.903,226.216 L244.903,195.597 L253.272,195.597 L253.272,226.216 L244.903,226.216 Z M210.960371,87.0164957 C210.960345,87.0160776 258.846598,86.6772457 354.619129,86 L243.492104,145.819647 L184,145.819647 C203.163014,125.879765 212.149804,106.278714 210.960371,87.0164957 Z M143.658758,87.0164957 C142.469324,106.278714 151.456115,125.879765 170.619129,145.819647 L111.127025,145.819647 L-1.13686838e-13,86 C95.7725309,86.6772457 143.658783,87.0160776 143.658758,87.0164957 Z M210.960371,58.8031517 C212.149804,39.540933 203.163014,19.9398825 184,-2.84217094e-14 L243.492104,-2.84217094e-14 L354.619129,59.8196474 C258.846598,59.1424017 210.960345,58.8035698 210.960371,58.8031517 Z M143.658758,58.8031517 C143.658783,58.8035698 95.7725309,59.1424017 -1.13686838e-13,59.8196474 L111.127025,-2.84217094e-14 L170.619129,-2.84217094e-14 C151.456115,19.9398825 142.469324,39.540933 143.658758,58.8031517 Z" id="path-1"></path>
        <linearGradient x1="48.2214164%" y1="0%" x2="48.2214153%" y2="102.82859%" id="linearGradient-3">
            <stop stop-color="#C3C3C3" offset="0%"></stop>
            <stop stop-color="#555555" offset="100%"></stop>
        </linearGradient>
    </defs>
    <g id="Page-1" stroke="none" stroke-width="1" fill="none" fill-rule="evenodd">
        <g id="logo-gregoire-besson-greygradient-onwhite">
            <g id="Rectangle-2" transform="translate(72.000000, 112.000000)">
                <mask id="mask-2" fill="white">
                    <use xlink:href="#path-1"></use>
                </mask>
                <use id="Mask" fill="#FFFFFF" xlink:href="#path-1"></use>
                <rect fill="url(#linearGradient-3)" mask="url(#mask-2)" x="-72" y="-112" width="500" height="500"></rect>
            </g>
        </g>
    </g>
</svg>