<?xml version="1.0" encoding="UTF-8"?>
<svg width="500px" height="500px" viewBox="0 0 500 500" version="1.1" xmlns="http://www.w3.org/2000/svg" xmlns:xlink="http://www.w3.org/1999/xlink">
    <!-- Generator: Sketch 46.2 (44496) - http://www.bohemiancoding.com/sketch -->
    <title>logo-gregoire-besson-white-oncolor</title>
    <desc>Created with Sketch.</desc>
    <defs></defs>
    <g id="Page-1" stroke="none" stroke-width="1" fill="none" fill-rule="evenodd">
        <g id="logo-gregoire-besson-white-oncolor">
            <rect id="Rectangle-2" fill="#E2001A" x="0" y="0" width="500" height="500"></rect>
            <path d="M330.3945,373.283 C330.3925,376.394 329.9245,378.524 328.5405,379.903 C327.1395,381.272 325.0405,381.677 322.1145,381.68 L304.4615,381.68 L304.4615,373.438 C304.4625,370.389 304.8885,368.248 306.2485,366.829 C307.6225,365.422 309.7275,364.965 312.7435,364.961 L330.3945,364.961 L330.3945,373.283 Z M312.5875,358.049 C307.8625,358.046 304.0065,359.518 301.3535,362.191 C298.6965,364.863 297.2745,368.691 297.2765,373.283 L297.2765,388.671 L322.2835,388.671 C327.0735,388.671 330.9225,387.261 333.5585,384.617 C336.2025,381.971 337.5815,378.136 337.5785,373.438 L337.5785,358.049 L312.5875,358.049 Z" id="Fill-46" fill="#FFFFFF"></path>
            <path d="M119.4804,381.8386 L119.4804,364.9226 L142.0944,364.9226 C142.9774,364.9196 143.7394,365.1246 144.2884,365.6306 C144.8334,366.1366 145.0704,366.8786 145.0664,367.6986 C145.0664,368.6236 144.8504,369.4236 144.3164,369.9976 C143.7814,370.5766 142.9904,370.8316 142.0944,370.8296 L125.6984,370.8296 L125.6984,375.8946 L142.0944,375.8946 C142.9904,375.8866 143.7814,376.1416 144.3164,376.7206 C144.8504,377.2966 145.0664,378.0996 145.0664,379.0226 C145.0704,379.8596 144.8374,380.6076 144.2884,381.1216 C143.7404,381.6326 142.9774,381.8386 142.0944,381.8386 L119.4804,381.8386 Z M148.9054,373.1016 C151.3204,371.9736 152.6824,369.5356 152.6404,366.0996 C152.6414,363.5216 151.9284,361.4596 150.4344,360.0776 C148.9414,358.6946 146.7664,358.0516 144.0034,358.0516 L112.3004,358.0516 L112.3004,388.6706 L144.0034,388.6706 C146.7664,388.6706 148.9414,388.0246 150.4344,386.6426 C151.9284,385.2586 152.6414,383.2006 152.6364,380.6236 C152.6764,376.9186 151.3164,374.2976 148.9054,373.1016 L148.9054,373.1016 Z" id="Fill-48" fill="#FFFFFF"></path>
            <path d="M243.7587,370.6287 L242.5777,370.6307 L213.1737,370.6307 L213.2617,369.9667 C213.6127,366.7517 215.7107,364.8957 218.9247,364.9607 L243.6037,364.9607 L243.6037,358.0517 L220.4477,358.0517 C215.8917,358.0517 212.3677,359.1037 209.9777,361.3107 C207.5837,363.5187 206.4187,366.8197 206.4267,371.0567 L206.4267,376.0847 L236.9527,376.0847 L236.8407,376.7737 C236.4017,379.8097 234.4187,381.7347 231.2597,381.6807 L207.6087,381.6797 L206.4267,381.6797 L206.4267,388.6677 L229.7527,388.6677 C234.2997,388.6677 237.8187,387.6117 240.2057,385.4067 C242.6017,383.2007 243.7637,379.9017 243.7617,375.6647 L243.7587,370.6287 Z" id="Fill-50" fill="#FFFFFF"></path>
            <path d="M289.1425,370.6287 L287.9605,370.6307 L258.5585,370.6307 L258.6475,369.9667 C258.9965,366.7517 261.0955,364.8957 264.3075,364.9607 L288.9875,364.9607 L288.9875,358.0517 L265.8295,358.0517 C261.2745,358.0517 257.7535,359.1037 255.3615,361.3107 C252.9665,363.5187 251.8025,366.8197 251.8085,371.0567 L251.8085,376.0847 L282.3375,376.0847 L282.2255,376.7737 C281.7865,379.8097 279.8055,381.7347 276.6445,381.6807 L252.9915,381.6797 L251.8085,381.6797 L251.8085,388.6677 L275.1375,388.6677 C279.6855,388.6677 283.2055,387.6117 285.5905,385.4067 C287.9845,383.2007 289.1475,379.9017 289.1445,375.6647 L289.1425,370.6287 Z" id="Fill-52" fill="#FFFFFF"></path>
            <path d="M378.8066,358.0515 L378.8066,375.9355 C378.8066,376.0205 378.8076,376.1135 378.8086,376.2065 L378.6606,376.0455 C371.3136,368.0725 362.4256,361.1745 352.8736,358.0775 L352.7896,358.0515 L345.9356,358.0515 L345.9356,388.6695 L354.1046,388.6695 L354.1046,368.3255 C354.1036,368.0835 354.0836,367.6815 354.0486,367.1135 C354.4426,367.2505 354.7976,367.3745 355.1266,367.5065 C362.5776,370.3635 370.3276,377.3835 378.3736,388.4255 L378.5506,388.6695 L387.0166,388.6695 L387.0166,358.0515 L378.8066,358.0515 Z" id="Fill-54" fill="#FFFFFF"></path>
            <path d="M176.1503,365.0584 L198.0863,365.0584 L199.2703,365.0564 L199.2703,358.1464 L175.9963,358.1464 C171.3303,358.1454 167.4773,359.5954 164.8053,362.2574 C162.1363,364.9164 160.6843,368.7494 160.6863,373.3774 L160.6863,388.7654 L199.2703,388.7654 L199.2703,381.7764 L167.8733,381.7764 L167.8733,376.1824 L193.5193,376.1824 L193.5193,370.7284 L168.0663,370.7284 L168.2823,369.9744 C169.1283,366.8824 171.6493,365.0064 176.1503,365.0584" id="Fill-56" fill="#FFFFFF"></path>
            <path d="M105.6484,320.1794 L105.6484,325.6334 L110.3154,325.6334 L110.1194,326.3764 C109.3134,329.6774 107.0514,331.3064 102.4814,331.2274 L85.4154,331.2274 L85.4154,323.1014 C85.4184,319.9994 85.8054,317.8364 87.1524,316.3964 C88.5144,314.9664 90.6264,314.5074 93.6974,314.5054 L116.7624,314.5054 L117.9454,314.5044 L117.9454,307.5934 L93.5784,307.5934 C88.7654,307.5934 84.9114,309.0034 82.2724,311.6504 C79.6364,314.2954 78.2684,318.1304 78.2714,322.8264 L78.2714,338.2154 L102.6384,338.2154 C107.6114,338.2154 111.3594,337.2664 113.9144,334.3704 C116.3944,331.5454 117.6534,327.0704 118.1054,320.1794 L105.6484,320.1794 Z" id="Fill-58" fill="#FFFFFF"></path>
            <path d="M247.7353,320.1794 L247.7353,325.6334 L252.4013,325.6334 L252.2063,326.3764 C251.4003,329.6774 249.1393,331.3064 244.5673,331.2274 L227.5033,331.2274 L227.5033,323.1014 C227.5063,319.9994 227.8933,317.8364 229.2403,316.3964 C230.6033,314.9664 232.7153,314.5074 235.7843,314.5054 L258.8523,314.5054 L260.0323,314.5044 L260.0323,307.5934 L235.6653,307.5934 C230.8523,307.5934 226.9963,309.0034 224.3613,311.6504 C221.7243,314.2954 220.3553,318.1304 220.3583,322.8264 L220.3583,338.2154 L244.7263,338.2154 C249.6983,338.2154 253.4463,337.2664 256.0013,334.3704 C258.4843,331.5454 259.7433,327.0704 260.1933,320.1794 L247.7353,320.1794 Z" id="Fill-60" fill="#FFFFFF"></path>
            <path d="M156.4579,326.5466 C163.1359,325.4936 166.7179,321.0436 166.6479,313.8076 L166.6479,307.5936 L126.3479,307.5936 L126.3479,338.2146 L134.7159,338.2146 L134.7159,314.5056 L159.8389,314.5056 L159.7299,315.1896 C159.2949,318.3026 157.3139,320.2336 154.1519,320.1756 L154.1519,320.1796 L139.2159,320.1796 L139.2159,326.8146 L146.1379,326.8146 L157.4989,338.2156 L167.8129,338.2156 L156.4579,326.5466 Z" id="Fill-62" fill="#FFFFFF"></path>
            <path d="M364.0566,326.5466 C370.7376,325.4936 374.3156,321.0436 374.2496,313.8076 L374.2496,307.5936 L333.9496,307.5936 L333.9496,338.2146 L342.3156,338.2146 L342.3156,314.5056 L367.4406,314.5056 L367.3306,315.1896 C366.8956,318.3026 364.9136,320.2336 361.7526,320.1756 L361.7526,320.1796 L346.8156,320.1796 L346.8156,326.8146 L353.7386,326.8146 L365.0996,338.2156 L375.4166,338.2156 L364.0566,326.5466 Z" id="Fill-64" fill="#FFFFFF"></path>
            <polygon id="Fill-66" fill="#FFFFFF" points="199.9706 300.1697 186.9996 304.0367 186.9996 305.1007 188.1806 305.1007 188.9956 305.1007 199.9706 305.0987"></polygon>
            <path d="M301.2411,322.8279 C301.2371,325.9389 300.7711,328.0699 299.3871,329.4509 C297.9841,330.8179 295.8871,331.2219 292.9621,331.2269 L275.3071,331.2269 L275.3071,322.9849 C275.3101,319.9349 275.7331,317.7949 277.0951,316.3759 C278.4691,314.9669 280.5761,314.5099 283.5911,314.5059 L301.2411,314.5059 L301.2411,322.8279 Z M283.4311,307.5939 C278.7091,307.5919 274.8541,309.0639 272.2001,311.7379 C269.5431,314.4099 268.1201,318.2399 268.1251,322.8279 L268.1251,338.2159 L293.1291,338.2159 C297.9181,338.2159 301.7701,336.8069 304.4031,334.1619 C307.0491,331.5169 308.4281,327.6829 308.4271,322.9849 L308.4271,307.5939 L283.4311,307.5939 Z" id="Fill-68" fill="#FFFFFF"></path>
            <path d="M190.2236,314.6033 L212.1596,314.6033 L213.3416,314.6033 L213.3416,307.6923 L190.0676,307.6923 C185.4006,307.6903 181.5506,309.1423 178.8796,311.8043 C176.2086,314.4623 174.7556,318.2963 174.7606,322.9243 L174.7606,338.3123 L213.3416,338.3123 L213.3416,331.3243 L181.9436,331.3243 L181.9436,325.7283 L207.5916,325.7283 L207.5916,320.2753 L182.1376,320.2753 L182.3566,319.5203 C183.2016,316.4273 185.7246,314.5523 190.2236,314.6033" id="Fill-70" fill="#FFFFFF"></path>
            <path d="M396.9267,314.6033 L418.8617,314.6033 L420.0457,314.6033 L420.0457,307.6923 L396.7717,307.6923 C392.1057,307.6903 388.2527,309.1423 385.5837,311.8043 C382.9117,314.4623 381.4607,318.2963 381.4627,322.9243 L381.4627,338.3123 L420.0457,338.3123 L420.0457,331.3243 L388.6487,331.3243 L388.6487,325.7283 L414.2947,325.7283 L414.2947,320.2753 L388.8417,320.2753 L389.0577,319.5203 C389.9037,316.4273 392.4267,314.5523 396.9267,314.6033" id="Fill-72" fill="#FFFFFF"></path>
            <polygon id="Fill-74" fill="#FFFFFF" points="316.903 338.216 325.272 338.216 325.272 307.597 316.903 307.597"></polygon>
            <path d="M282.960371,199.016496 C282.960345,199.016078 330.846598,198.677246 426.619129,198 L315.492104,257.819647 L256,257.819647 C275.163014,237.879765 284.149804,218.278714 282.960371,199.016496 Z" id="Path-2" fill="#FFFFFF"></path>
            <path d="M98.9603711,199.016496 C98.9603453,199.016078 146.846598,198.677246 242.619129,198 L131.492104,257.819647 L72,257.819647 C91.1630141,237.879765 100.149804,218.278714 98.9603711,199.016496 Z" id="Path-2" fill="#FFFFFF" transform="translate(157.309564, 227.909824) scale(-1, 1) translate(-157.309564, -227.909824) "></path>
            <path d="M282.960371,113.016496 C282.960345,113.016078 330.846598,112.677246 426.619129,112 L315.492104,171.819647 L256,171.819647 C275.163014,151.879765 284.149804,132.278714 282.960371,113.016496 Z" id="Path-2" fill="#FFFFFF" transform="translate(341.309564, 141.909824) scale(1, -1) translate(-341.309564, -141.909824) "></path>
            <path d="M98.9603711,113.016496 C98.9603453,113.016078 146.846598,112.677246 242.619129,112 L131.492104,171.819647 L72,171.819647 C91.1630141,151.879765 100.149804,132.278714 98.9603711,113.016496 Z" id="Path-2" fill="#FFFFFF" transform="translate(157.309564, 141.909824) scale(-1, -1) translate(-157.309564, -141.909824) "></path>
        </g>
    </g>
</svg>