<?xml version="1.0" encoding="UTF-8"?>
<svg width="500px" height="500px" viewBox="0 0 500 500" version="1.1" xmlns="http://www.w3.org/2000/svg" xmlns:xlink="http://www.w3.org/1999/xlink">
    <!-- Generator: Sketch 46.2 (44496) - http://www.bohemiancoding.com/sketch -->
    <title>logo-rabe-color-onwhite</title>
    <desc>Created with Sketch.</desc>
    <defs></defs>
    <g id="Page-1" stroke="none" stroke-width="1" fill="none" fill-rule="evenodd">
        <g id="logo-rabe-color-onwhite" fill="#0076BD">
            <path d="M189.1562,372.2538 L202.5002,353.3758 L215.4522,372.2538 L189.1562,372.2538 Z M215.2462,338.2958 C213.8662,336.2938 212.2002,334.6258 210.2282,333.2858 C208.2642,331.9338 205.8122,331.2658 202.8762,331.2658 C199.8202,331.2658 197.2862,331.9838 195.2902,333.4178 C193.2902,334.8558 191.6242,336.4878 190.3222,338.2958 L150.1122,394.9998 L173.0742,394.9998 L177.8142,388.2778 L226.3822,388.2778 L231.0542,394.9998 L254.4202,394.9998 L215.2462,338.2958 Z" id="Fill-27"></path>
            <path d="M276.6318,370.2538 L276.6318,378.8638 L316.1778,378.8638 C318.3078,378.8638 319.8358,378.5078 320.7718,377.7498 C321.7018,376.9918 322.1818,375.9018 322.1818,374.4718 C322.1818,373.0938 321.7018,372.0578 320.7718,371.3358 C319.8358,370.6138 318.3078,370.2538 316.1778,370.2538 L276.6318,370.2538 Z M331.7298,362.7618 C334.4918,363.5658 336.8198,365.1558 338.7218,367.5318 C340.6238,369.9058 341.5578,372.9718 341.5578,376.7118 C341.5578,379.3438 341.1718,381.7658 340.3538,383.9718 C339.5298,386.1878 338.1718,388.1298 336.2338,389.7458 C334.2918,391.3678 331.6858,392.6518 328.4058,393.5778 C325.1318,394.5318 321.0298,394.9998 316.0898,394.9998 L257.1358,394.9998 L257.1358,356.8518 L316.4598,356.8518 C317.8978,356.8518 319.1678,356.5538 320.2498,355.9578 C321.3418,355.3678 321.9018,354.2538 321.9018,352.6318 C321.9018,351.0698 321.3418,350.0158 320.2138,349.4538 C319.0858,348.8818 317.8418,348.6098 316.4598,348.6098 L257.1358,348.6098 L257.1358,332.2938 L315.6238,332.2938 C319.3698,332.2938 322.7538,332.6558 325.7838,333.3758 C328.8118,334.0938 331.4018,335.1878 333.5618,336.6478 C335.7258,338.1218 337.3698,339.9418 338.5218,342.0858 C339.6778,344.2498 340.2598,346.7738 340.2598,349.6398 C340.2598,351.5118 340.0058,353.1678 339.5178,354.6098 C339.0178,356.0358 338.3898,357.2998 337.5858,358.4018 C336.8198,359.4958 335.9058,360.4058 334.8778,361.1018 C333.8398,361.8318 332.8078,362.3778 331.7298,362.7618 L331.7298,362.7618 Z" id="Fill-29"></path>
            <polygon id="Fill-31" points="439.956 378.8632 427.484 394.9992 351.726 394.9992 351.726 332.2932 439.776 332.2932 427.21 348.6092 371.23 348.6092 371.23 356.0932 422.362 356.0932 411.214 370.3352 371.23 370.3352 371.23 378.8632"></polygon>
            <path d="M150.1268,395 L124.1648,395 L110.2008,378.406 L80.3948,378.406 L80.3948,395 L61.0008,395 L61.0008,362.942 L115.5528,362.942 C118.5448,362.942 121.0808,362.32 123.1288,361.074 C125.1948,359.824 126.2108,358.102 126.2108,355.902 C126.2108,353.48 125.2928,351.644 123.4088,350.438 C121.5428,349.218 118.9128,348.61 115.5528,348.61 L61.0008,348.61 L61.0008,332.292 L113.9568,332.292 C117.5068,332.292 121.2008,332.626 125.0028,333.286 C128.8208,333.942 132.2828,335.106 135.4208,336.796 C138.5348,338.488 141.1088,340.758 143.1468,343.628 C145.1768,346.516 146.1868,350.2 146.1868,354.7 C146.1868,357.128 145.8128,359.45 145.0768,361.636 C144.3208,363.812 143.2388,365.782 141.8348,367.532 C140.4328,369.292 138.7068,370.766 136.6768,371.988 C134.6368,373.196 132.3568,374.078 129.7828,374.562 C130.8368,375.372 132.0368,376.398 133.3448,377.66 C134.6728,378.91 136.4108,380.628 138.5928,382.82 L150.1268,395 Z" id="Fill-33"></path>
            <path d="M345,204.490985 C345,256.676581 302.70373,299 250.509015,299 C198.324317,299 156,256.676581 156,204.490985 C156,152.297377 198.324317,110 250.509015,110 C302.70373,110 345,152.297377 345,204.490985 Z M192.754,174.172 C188.574,181.562 185.976,189.546 185,197.94 C202.594,187.464 219.194,185.848 227.71,185.848 C230.512,185.848 232.106,186.024 232.17,186.044 C232.664,186.088 233.092,186.46 233.224,186.95 C233.344,187.442 233.15,187.964 232.724,188.254 C232.458,188.452 205.962,207.32 197.498,238.04 C228.122,207.29 263.932,203.886 278.254,203.886 C281.714,203.886 283.694,204.088 283.78,204.088 C284.308,204.158 284.714,204.538 284.832,205.038 C284.956,205.544 284.75,206.07 284.308,206.344 C283.928,206.58 247.382,230.088 237.988,267.794 C241.276,268.326 244.622,268.588 247.952,268.588 C270.846,268.588 292.046,256.252 303.292,236.394 C320.174,206.58 310.464,169.234 281.222,151.364 C280.596,150.976 279.914,150.578 279.21,150.182 C269.714,144.828 258.932,142 248.092,142 C225.192,142 203.982,154.34 192.754,174.172 Z" id="Combined-Shape"></path>
        </g>
    </g>
</svg>