<?xml version="1.0" encoding="UTF-8"?>
<svg width="500px" height="500px" viewBox="0 0 500 500" version="1.1" xmlns="http://www.w3.org/2000/svg" xmlns:xlink="http://www.w3.org/1999/xlink">
    <!-- Generator: Sketch 46.2 (44496) - http://www.bohemiancoding.com/sketch -->
    <title>logo-rabe-greygradient-onwhite</title>
    <desc>Created with Sketch.</desc>
    <defs>
        <path d="M128.1562,262.2538 L141.5002,243.3758 L154.4522,262.2538 L128.1562,262.2538 Z M89.1266106,284.9998 L112.0742,284.9998 L116.8142,278.2778 L165.3822,278.2778 L170.0542,284.9998 L193.4202,284.9998 L154.2462,228.2958 C152.8662,226.2938 151.2002,224.6258 149.2282,223.2858 C147.2642,221.9338 144.8122,221.2658 141.8762,221.2658 C138.8202,221.2658 136.2862,221.9838 134.2902,223.4178 C132.2902,224.8558 130.6242,226.4878 129.3222,228.2958 L89.1183705,284.991098 L77.5928,272.82 C75.4108,270.628 73.6728,268.91 72.3448,267.66 C71.0368,266.398 69.8368,265.372 68.7828,264.562 C71.3568,264.078 73.6368,263.196 75.6768,261.988 C77.7068,260.766 79.4328,259.292 80.8348,257.532 C82.2388,255.782 83.3208,253.812 84.0768,251.636 C84.8128,249.45 85.1868,247.128 85.1868,244.7 C85.1868,240.2 84.1768,236.516 82.1468,233.628 C80.1088,230.758 77.5348,228.488 74.4208,226.796 C71.2828,225.106 67.8208,223.942 64.0028,223.286 C60.2008,222.626 56.5068,222.292 52.9568,222.292 L0.0008,222.292 L0.0008,238.61 L54.5528,238.61 C57.9128,238.61 60.5428,239.218 62.4088,240.438 C64.2928,241.644 65.2108,243.48 65.2108,245.902 C65.2108,248.102 64.1948,249.824 62.1288,251.074 C60.0808,252.32 57.5448,252.942 54.5528,252.942 L0.0008,252.942 L0.0008,285 L19.3948,285 L19.3948,268.406 L49.2008,268.406 L63.1648,285 L89.1268,285 Z M270.7298,252.7618 C273.4918,253.5658 275.8198,255.1558 277.7218,257.5318 C279.6238,259.9058 280.5578,262.9718 280.5578,266.7118 C280.5578,269.3438 280.1718,271.7658 279.3538,273.9718 C278.5298,276.1878 277.1718,278.1298 275.2338,279.7458 C273.2918,281.3678 270.6858,282.6518 267.4058,283.5778 C264.1318,284.5318 260.0298,284.9998 255.0898,284.9998 L196.1358,284.9998 L196.1358,246.8518 L255.4598,246.8518 C256.8978,246.8518 258.1678,246.5538 259.2498,245.9578 C260.3418,245.3678 260.9018,244.2538 260.9018,242.6318 C260.9018,241.0698 260.3418,240.0158 259.2138,239.4538 C258.0858,238.8818 256.8418,238.6098 255.4598,238.6098 L196.1358,238.6098 L196.1358,222.2938 L254.6238,222.2938 C258.3698,222.2938 261.7538,222.6558 264.7838,223.3758 C267.8118,224.0938 270.4018,225.1878 272.5618,226.6478 C274.7258,228.1218 276.3698,229.9418 277.5218,232.0858 C278.6778,234.2498 279.2598,236.7738 279.2598,239.6398 C279.2598,241.5118 279.0058,243.1678 278.5178,244.6098 C278.0178,246.0358 277.3898,247.2998 276.5858,248.4018 C275.8198,249.4958 274.9058,250.4058 273.8778,251.1018 C272.8398,251.8318 271.8078,252.3778 270.7298,252.7618 Z M215.6318,260.2538 L215.6318,268.8638 L255.1778,268.8638 C257.3078,268.8638 258.8358,268.5078 259.7718,267.7498 C260.7018,266.9918 261.1818,265.9018 261.1818,264.4718 C261.1818,263.0938 260.7018,262.0578 259.7718,261.3358 C258.8358,260.6138 257.3078,260.2538 255.1778,260.2538 L215.6318,260.2538 Z M378.956,268.8632 L366.484,284.9992 L290.726,284.9992 L290.726,222.2932 L378.776,222.2932 L366.21,238.6092 L310.23,238.6092 L310.23,246.0932 L361.362,246.0932 L350.214,260.3352 L310.23,260.3352 L310.23,268.8632 L378.956,268.8632 Z M284,94.4909852 C284,146.676581 241.70373,189 189.509015,189 C137.324317,189 95,146.676581 95,94.4909852 C95,42.2973766 137.324317,0 189.509015,0 C241.70373,0 284,42.2973766 284,94.4909852 Z M131.754,64.172 C127.574,71.562 124.976,79.546 124,87.94 C141.594,77.464 158.194,75.848 166.71,75.848 C169.512,75.848 171.106,76.024 171.17,76.044 C171.664,76.088 172.092,76.46 172.224,76.95 C172.344,77.442 172.15,77.964 171.724,78.254 C171.458,78.452 144.962,97.32 136.498,128.04 C167.122,97.29 202.932,93.886 217.254,93.886 C220.714,93.886 222.694,94.088 222.78,94.088 C223.308,94.158 223.714,94.538 223.832,95.038 C223.956,95.544 223.75,96.07 223.308,96.344 C222.928,96.58 186.382,120.088 176.988,157.794 C180.276,158.326 183.622,158.588 186.952,158.588 C209.846,158.588 231.046,146.252 242.292,126.394 C259.174,96.58 249.464,59.234 220.222,41.364 C219.596,40.976 218.914,40.578 218.21,40.182 C208.714,34.828 197.932,32 187.092,32 C164.192,32 142.982,44.34 131.754,64.172 Z" id="path-1"></path>
        <linearGradient x1="48.2214164%" y1="0%" x2="48.2214153%" y2="102.82859%" id="linearGradient-3">
            <stop stop-color="#C3C3C3" offset="0%"></stop>
            <stop stop-color="#555555" offset="100%"></stop>
        </linearGradient>
    </defs>
    <g id="Page-1" stroke="none" stroke-width="1" fill="none" fill-rule="evenodd">
        <g id="logo-rabe-greygradient-onwhite">
            <g id="Rectangle-2" transform="translate(61.000000, 110.000000)">
                <mask id="mask-2" fill="white">
                    <use xlink:href="#path-1"></use>
                </mask>
                <use id="Mask" fill="#FFFFFF" xlink:href="#path-1"></use>
                <rect fill="url(#linearGradient-3)" mask="url(#mask-2)" x="-61" y="-110" width="500" height="500"></rect>
            </g>
        </g>
    </g>
</svg>