<?xml version="1.0" encoding="UTF-8"?>
<svg width="500px" height="500px" viewBox="0 0 500 500" version="1.1" xmlns="http://www.w3.org/2000/svg" xmlns:xlink="http://www.w3.org/1999/xlink">
    <!-- Generator: Sketch 46.2 (44496) - http://www.bohemiancoding.com/sketch -->
    <title>logo-gb-group-greygradient-onwhite</title>
    <desc>Created with Sketch.</desc>
    <defs>
        <path d="M67.4127327,208.815971 C70.0861176,208.432743 71.1058346,205.380414 71.1058346,202.959602 C70.725464,203.34283 70.2156055,203.723359 69.705747,203.850202 C69.1958885,204.106587 68.3056594,204.23343 67.1591523,204.23343 C66.0126451,204.23343 64.9956258,203.977045 64.1026991,203.596516 C63.3392602,203.215987 62.5758213,202.703217 61.9391726,201.942159 C61.4293141,201.305246 61.0462459,200.414646 60.6658753,199.524046 C60.4095972,198.633446 60.282807,197.613305 60.282807,196.595862 C60.282807,195.57572 60.5363874,194.68512 60.9194557,193.79452 C61.1730361,192.903921 61.6828946,192.137465 62.3195432,191.50325 C62.9561919,190.739493 63.7196308,190.226724 64.6125576,189.848893 C65.3759964,189.465666 66.3957134,189.336124 67.4127327,189.336124 C68.1761716,189.336124 68.9396105,189.465666 69.4494689,189.592509 C70.0861176,189.848893 70.725464,190.099881 71.2326248,190.609951 L71.2326248,189.465666 L74.7989365,189.465666 L74.7989365,201.812618 C74.7989365,202.959602 74.6694486,205.504559 74.289078,206.397857 C74.0354976,207.4153 73.5256391,208.308599 73.0157806,208.942814 C72.3791319,209.706571 71.6156931,210.343484 70.725464,210.853555 C69.8325372,211.360927 68.5592399,211.744155 67.4127327,211.870998 L67.4127327,208.815971 Z M71.2326248,194.938806 C71.1058346,194.431434 71.1058346,193.918665 70.8495565,193.538136 C70.5959761,193.28445 70.3423957,192.903921 70.0861176,192.777078 C69.8325372,192.520693 69.4494689,192.39385 69.1958885,192.264308 C68.8155179,192.137465 68.5592399,192.137465 68.1761716,192.137465 C66.776084,192.137465 65.6295768,192.520693 64.9956258,193.28445 C64.3562795,194.048206 63.9759089,195.192492 63.9759089,196.595862 C63.9759089,198.120677 64.3562795,199.267661 64.866138,200.158261 C65.5027866,200.922018 66.3957134,201.432089 67.6690108,201.432089 C68.6860301,201.432089 69.5789568,201.178403 70.2156055,200.668332 C70.8495565,200.287803 71.2326248,199.650889 71.2326248,198.884433 L71.2326248,194.938806 Z M97.8458885,192.520423 C97.2092399,192.264038 95.426084,192.137195 95.1725036,192.137195 C94.2795768,192.137195 93.516138,192.39358 93.1330697,193.027795 C92.7526991,193.537866 92.4991187,194.301623 92.4991187,195.065379 L92.4991187,204.360003 L88.932807,204.360003 L88.932807,189.465396 L92.4991187,189.465396 L92.4991187,191.246595 C92.7526991,190.609682 93.1330697,190.102309 93.772416,189.848623 C94.4090647,189.465396 95.1725036,189.335854 95.9359425,189.335854 C96.5725912,189.335854 97.3360301,189.465396 97.8458885,189.719082 L97.8458885,192.520423 Z M117.073218,204.23289 C114.780204,204.23289 112.870258,203.598675 111.596961,202.322149 C110.326361,200.921478 109.687014,199.140278 109.687014,196.722165 C109.687014,195.704722 109.816502,194.684581 110.196873,193.793981 C110.579941,192.903381 111.0898,192.139624 111.726448,191.373168 C112.360399,190.738953 113.126536,190.228883 114.016765,189.848354 C115.036482,189.465126 116.056199,189.21144 117.073218,189.21144 C118.219725,189.21144 119.236745,189.465126 120.129671,189.848354 C121.146691,190.228883 121.91013,190.738953 122.549476,191.373168 C123.186125,192.012781 123.695983,192.903381 124.076354,193.793981 C124.459422,194.684581 124.586212,195.704722 124.586212,196.722165 C124.586212,199.013435 123.949564,200.797334 122.676266,202.195306 C121.402969,203.598675 119.493023,204.23289 117.073218,204.23289 Z M117.073218,192.139624 C115.799921,192.139624 114.909692,192.520153 114.270345,193.410753 C113.506907,194.301353 113.253326,195.448337 113.253326,196.849008 C113.253326,199.904035 114.526624,201.431549 117.200008,201.431549 C119.746603,201.431549 121.019901,199.904035 121.019901,196.849008 C121.019901,193.667138 119.746603,192.139624 117.073218,192.139624 Z M148.270353,202.322149 C147.760494,202.959062 147.123845,203.469133 146.360406,203.849662 C145.46748,204.106047 144.577251,204.23289 143.557534,204.23289 C141.903866,204.23289 140.503778,203.849662 139.610851,202.832219 C138.593832,201.94162 138.083974,200.670491 138.083974,199.140278 L138.083974,189.084597 L141.647588,189.084597 L141.647588,198.120137 C141.647588,199.140278 141.903866,199.904035 142.413724,200.540949 C142.923583,201.048321 143.687022,201.431549 144.704041,201.431549 C145.723758,201.431549 146.613987,201.048321 147.250636,200.540949 C147.887284,199.904035 148.270353,199.140278 148.270353,198.120137 L148.270353,189.084597 L151.833967,189.084597 L151.833967,204.359733 L148.270353,204.359733 L148.270353,202.322149 Z M170.807716,204.23289 C170.171067,204.23289 169.534419,204.23289 168.89777,203.976505 C168.134331,203.849662 167.624472,203.469133 167.114614,202.959062 L167.114614,212 L163.551,212 L163.551,189.465126 L167.114614,189.465126 L167.114614,191.122181 C167.497682,190.482569 168.134331,189.975197 168.77098,189.718812 C169.534419,189.335584 170.297857,189.21144 171.061296,189.21144 C172.207803,189.21144 173.22752,189.465126 174.117749,189.718812 C175.010676,190.10204 175.774115,190.609412 176.283974,191.246325 C176.920622,191.883239 177.300993,192.646996 177.557271,193.410753 C177.810851,194.301353 178.064432,195.321494 178.064432,196.338937 C178.064432,197.485922 177.810851,198.503365 177.557271,199.523506 C177.300993,200.414106 176.791134,201.304706 176.283974,202.068463 C175.644627,202.705376 174.881188,203.34229 173.990959,203.725518 C173.10073,204.106047 171.954223,204.23289 170.807716,204.23289 Z M170.554135,192.139624 C170.171067,192.139624 169.790697,192.139624 169.407628,192.263768 C169.02456,192.520153 168.644189,192.646996 168.261121,192.903381 C167.880751,193.157067 167.624472,193.410753 167.370892,193.793981 C167.241404,194.17451 167.114614,194.430894 167.114614,194.684581 L167.114614,198.759749 C167.114614,199.013435 167.241404,199.393964 167.370892,199.650349 C167.624472,200.030878 167.880751,200.287263 168.134331,200.540949 C168.514702,200.797334 168.89777,200.921478 169.407628,201.177863 C169.790697,201.304706 170.171067,201.431549 170.680926,201.431549 C171.444365,201.431549 171.954223,201.304706 172.464082,201.048321 C172.971242,200.797334 173.481101,200.414106 173.734681,200.030878 C173.990959,199.523506 174.24454,199.013435 174.374028,198.376522 C174.500818,197.742307 174.627608,197.102694 174.627608,196.46578 C174.627608,195.831565 174.500818,195.191953 174.374028,194.684581 C174.24454,194.17451 173.990959,193.667138 173.734681,193.28391 C173.354311,192.903381 172.971242,192.646996 172.464082,192.39331 C171.954223,192.139624 171.317574,192.139624 170.554135,192.139624 Z M98.8100336,0 L382,0 L382,115.470315 C382,175.561513 347.364693,211.463481 286.5,211.463481 L200.29615,211.463481 L200.29615,203.696371 L200.29615,188.545379 L286.5,188.545379 C312.478503,188.545379 329.53853,181.417882 340.871416,169.958831 C352.204302,158.49978 359.207438,141.060216 359.207438,115.470315 L359.207438,22.7885602 L83.6572554,22.7885602 C58.4448886,22.7885602 40.2383548,30.4261283 27.7589616,42.5220931 C20.0598288,50.0085292 13.9091551,59.300454 10.4885173,71.0833594 C8.67838479,78.7479154 7.63978419,86.9738192 7.63978419,95.8636247 L7.63978419,96.8810675 L0,96.8810675 L0,95.9904677 C0,37.4294815 38.9623598,0 98.8100336,0 Z M317.889208,98.7173224 C315.979262,102.409263 313.305877,104.700534 309.993146,105.717977 C313.559457,107.242792 315.979262,109.53946 318.015998,113.358244 C319.925944,117.301172 320.945661,122.140098 320.816173,127.615937 C320.945661,135.634034 318.269579,141.873631 312.793321,146.329328 C309.102917,150.148113 302.99001,152.185697 294.457299,152.185697 L201.123523,152.185697 L201.123523,60.9073119 L294.457299,60.9073119 C302.99001,60.9073119 309.485985,62.9421976 314.069316,67.0173664 C318.652647,71.3462213 320.945661,77.4562758 320.816173,85.6039148 C320.945661,90.5696835 319.925944,95.0253813 317.889208,98.7173224 Z M224.679525,129.907208 L288.983739,129.907208 C291.276753,129.907208 293.057212,129.397137 294.330509,128.252851 C295.603806,126.979023 296.240455,125.324667 296.240455,122.906553 C296.240455,120.358898 295.730597,118.577698 294.713577,117.430714 C293.1867,115.776357 291.276753,115.0126 288.983739,115.139443 L240.085883,115.139443 L240.085883,98.0804086 L288.983739,98.0804086 C291.276753,98.0804086 293.1867,97.3166518 294.713577,95.7891381 C295.730597,94.6421535 296.240455,92.7314121 296.240455,90.0596126 C296.240455,87.8951852 295.603806,86.1112868 294.330509,84.967001 C293.057212,83.8200163 291.276753,83.3126443 288.983739,83.3126443 L224.679525,83.3126443 L224.679525,129.907208 Z M140.129882,97.4434948 L178.838661,97.4434948 C178.202013,108.519318 176.928715,117.430714 174.891979,124.177682 C172.982033,130.92465 170.181858,136.40049 166.488756,140.47296 C162.795654,144.801815 158.082835,147.859541 152.609275,149.513897 C147.133017,151.295097 140.51295,152.185697 132.616888,152.185697 L60.6728892,152.185697 L60.6728892,106.354891 C60.6728892,92.0971971 64.6222691,81.0213739 72.6424239,73.0005779 C80.6652764,64.8502402 91.9981625,60.9046131 106.387502,60.9046131 L178.458291,60.9046131 L178.458291,83.4394873 L173.618682,83.4394873 L106.767872,83.4394873 C97.981581,83.4394873 91.6150942,85.220687 87.9219923,88.912628 C85.3780953,91.9676553 84.1021002,97.9508668 84.1021002,107.118647 L84.1021002,129.397137 L131.473078,129.397137 C138.219936,129.526679 143.186335,128.636079 146.496369,126.468952 C149.806402,124.304525 151.972626,120.995812 153.116436,116.410572 L153.626294,115.776357 L140.129882,115.776357 L140.129882,97.4434948 Z" id="path-1"></path>
        <linearGradient x1="48.2214164%" y1="0%" x2="48.2214153%" y2="102.82859%" id="linearGradient-3">
            <stop stop-color="#C3C3C3" offset="0%"></stop>
            <stop stop-color="#555555" offset="100%"></stop>
        </linearGradient>
    </defs>
    <g id="Page-1" stroke="none" stroke-width="1" fill="none" fill-rule="evenodd">
        <g id="logo-gb-group-greygradient-onwhite">
            <g id="Rectangle" transform="translate(58.000000, 145.000000)">
                <mask id="mask-2" fill="white">
                    <use xlink:href="#path-1"></use>
                </mask>
                <use id="Mask" fill="#FFFFFF" xlink:href="#path-1"></use>
                <rect fill="url(#linearGradient-3)" mask="url(#mask-2)" x="-58" y="-145" width="500" height="500"></rect>
            </g>
        </g>
    </g>
</svg>