<?xml version="1.0" encoding="UTF-8"?>
<svg width="500px" height="500px" viewBox="0 0 500 500" version="1.1" xmlns="http://www.w3.org/2000/svg" xmlns:xlink="http://www.w3.org/1999/xlink">
    <!-- Generator: Sketch 46.2 (44496) - http://www.bohemiancoding.com/sketch -->
    <title>logo-agriway-greygradient-onwhite</title>
    <desc>Created with Sketch.</desc>
    <defs>
        <path d="M131.401936,9.65126385 C139.937923,5.57279207 149.084276,2.56645002 158.666703,0.80653094 C160.976475,9.65161328 169.020725,16.1791045 178.589552,16.1791045 C188.158379,16.1791045 196.202629,9.65161328 198.512402,0.80653094 C208.094833,2.56645088 217.241191,5.57279502 225.777181,9.65126984 C222.439277,18.1674441 225.109271,28.1836512 232.854413,33.8108266 C240.597822,39.4367424 250.945974,38.8823869 258.013764,33.0798692 C264.598976,40.0042899 270.288091,47.7889102 274.89522,56.2478421 C267.169985,61.1700187 263.429947,70.855192 266.391942,79.9712743 C269.356384,89.094891 278.086908,94.7338031 287.238193,94.1644345 C287.858857,98.8847874 288.179104,103.699771 288.179104,108.589552 C288.179104,113.418007 287.86684,118.173528 287.261403,122.837023 C278.101674,122.256665 269.35889,127.897396 266.391942,137.028726 C263.420707,146.173247 267.193385,155.890415 274.967636,160.798084 C270.369945,169.267619 264.68839,177.063255 258.109089,183.998874 C251.039267,178.122734 240.632707,177.537912 232.854413,183.189173 C225.06358,188.849545 222.407952,198.950884 225.836869,207.499294 C217.296857,211.586053 208.145088,214.599362 198.556277,216.364506 C196.306093,207.432664 188.219953,200.820896 178.589552,200.820896 C168.959151,200.820896 160.873012,207.432664 158.622827,216.364506 C149.034012,214.599361 139.88224,211.58605 131.342225,207.499289 C134.771152,198.950884 132.115524,188.849545 124.324691,183.189173 C116.546397,177.537912 106.139837,178.122734 99.0700157,183.998874 C92.4907159,177.063257 86.8091602,169.26762 82.2114688,160.798084 C89.9857198,155.890415 93.7583979,146.173247 90.787163,137.028726 C87.8202141,127.897396 79.0774309,122.256665 69.9177011,122.837023 C69.3122649,118.17353 69,113.418008 69,108.589552 C69,103.699772 69.3202472,98.8847894 69.9409117,94.1644345 C79.0921967,94.7338031 87.8227202,89.094891 90.787163,79.9712743 C93.7491577,70.855192 90.0091199,61.1700187 82.2838841,56.2478421 C86.8910134,47.7889111 92.5801273,40.0042916 99.1653403,33.0798691 C106.233131,38.8823869 116.581283,39.4367424 124.324691,33.8108266 C132.069834,28.1836511 134.739827,18.1674438 131.401936,9.65126385 Z M10.5967921,264.33905 L40.8045238,264.33905 L40.8045238,254.628565 L10.5967921,254.628565 L10.5967921,264.33905 Z M40.8045238,272.82145 L10.5967921,272.82145 L10.5967921,291.174415 L8.44634085,291.174415 L0.624737195,291.174415 L0.624737195,253.887965 C0.624737195,249.596165 4.11201768,246.112815 8.44634085,246.112815 L43.0529323,246.112815 C47.3872555,246.112815 50.9068043,249.596165 50.9068043,253.887965 L50.9068043,291.174415 L43.0529323,291.174415 L40.8045238,291.174415 L40.8045238,272.82145 Z M217.653869,285.196366 C216.840524,286.373114 216.580703,286.984469 216.387289,288.143507 C216.049034,289.715494 215.495187,290.402338 214.007508,291.475212 C213.512392,291.780781 212.898006,291.931763 212.270652,291.931763 C210.312638,291.931763 208.251331,289.682462 208.129281,287.132576 C208.129281,284.501542 208.280418,281.83172 208.579017,278.678527 C208.733439,277.047826 208.831937,276.14784 209.2273,272.654338 C209.973151,266.063849 210.262222,262.593339 210.306227,258.252226 C210.342018,254.64209 210.300145,253.233888 210.1078,251.531282 C209.771847,249.191222 210.007121,247.817575 211.595168,246.457483 C213.626693,244.973767 214.869018,244.31678 216.193874,244.31678 C219.239594,244.31678 220.20598,247.911438 218.836275,252.156035 C218.506799,253.189846 218.130554,254.197767 217.592152,255.529288 C217.491943,255.777116 217.389757,256.0275 217.248618,256.371665 C217.076119,256.791931 216.986594,257.010136 216.903855,257.212581 C214.992746,261.88865 214.19003,264.779171 213.961876,269.109508 C213.829858,270.586966 213.824072,272.41701 213.915182,274.419012 C213.972836,275.685858 214.066943,276.935201 214.151018,277.771596 C214.643487,277.767128 215.083118,277.594414 215.233602,277.437925 C216.775138,275.702551 219.517117,272.886573 223.765434,268.631746 C223.904055,268.492929 223.904055,268.492929 224.0427,268.354148 C225.163208,267.232659 229.163525,263.243627 229.955752,262.450574 C231.921189,260.483087 233.075359,259.306855 233.669825,258.656712 C235.871608,256.520248 237.109034,254.586894 237.289581,253.103897 C237.315068,252.965574 237.344499,252.804843 237.398219,252.511367 C237.441383,252.276007 237.47341,252.103102 237.504942,251.936007 C238.242769,248.026168 239.155695,246.474339 241.841207,246.474339 C244.353904,246.474339 247.434985,248.13564 247.434985,250.470203 C247.434985,251.482563 246.135658,253.528342 245.035175,254.677378 C244.900281,254.831785 244.38455,255.395699 244.280199,255.513021 C243.978017,255.852761 243.733554,256.151336 243.500963,256.47334 C242.11935,258.386071 241.3498,260.94327 241.349386,265.035867 C241.171024,271.700521 241.333086,274.428247 242.036553,278.839133 C242.118651,278.854584 242.233353,278.861465 242.370643,278.851794 C242.931964,278.812252 243.572422,278.527675 243.964843,278.137136 C245.810395,276.078133 248.249922,273.537196 251.277113,270.495021 C251.62144,270.148989 251.973135,269.796714 252.332788,269.437561 C254.765858,267.007869 262.521306,259.41465 263.385179,258.53424 C265.929701,255.774541 267.171652,253.533288 267.171652,252.472169 C267.171652,252.267668 267.195255,252.05426 267.239956,251.784867 C267.265984,251.62801 267.297834,251.459103 267.360271,251.133718 C267.423724,250.796734 267.461061,250.565743 267.484796,250.343798 C267.544053,249.789679 267.490038,249.478911 267.361907,249.345281 C266.485678,248.367967 266.360212,246.55854 267.02915,245.199841 C267.861616,243.508995 269.674913,242.809156 271.96538,243.501269 C274.471448,244.258358 275.553133,245.840062 275.551897,248.311954 C275.435774,250.82142 274.016136,254.013027 271.759703,256.908212 C267.123339,263.179963 263.813113,266.99152 255.220586,275.930933 C248.7035,282.738071 246.098795,286.432623 245.29071,289.214988 C244.876056,291.019214 243.432746,292.12539 241.695393,292.12539 C239.35482,292.12539 238.446192,290.391469 237.499692,285.4359 C237.361829,284.687719 237.215062,283.481829 237.018017,281.568104 C236.927189,280.685966 236.559857,276.945781 236.469907,276.061245 C235.914684,270.601396 235.420794,267.278394 235.06706,266.758596 C232.179177,268.955007 220.236998,281.64058 217.653869,285.196366 Z M281.84616,289.19051 C279.26991,291.285283 277.058397,292.326508 275.134744,292.326508 C272.68869,292.326508 269.651189,290.030281 269.651189,286.471593 C269.651189,283.992106 270.827244,280.487442 273.712225,275.459013 C276.751898,269.806658 281.79285,263.482351 286.581402,259.665457 C290.216616,256.615279 293.305144,255.365627 295.577522,255.365627 C296.919368,255.365627 297.900451,256.101052 298.993597,257.394371 C299.101007,257.384338 299.251015,257.367799 299.486843,257.34094 C299.625879,257.325179 299.686848,257.318438 299.771243,257.30967 C300.777798,257.205092 301.318886,257.218756 301.813021,257.526639 C303.763482,258.615182 304.106229,260.169429 303.214735,261.826171 C299.843424,268.723845 298.273374,273.854863 298.273374,278.694237 C298.273374,280.953963 298.461453,282.718404 298.84895,283.864333 C299.187441,284.86534 299.517111,285.144324 300.00499,285.049564 C304.26698,284.222426 305.87542,283.030187 310.515765,277.104062 C311.623676,275.387346 314.175226,275.387346 314.175226,277.635051 C314.175226,278.703168 313.815194,280.015711 313.105438,281.547972 C309.421918,288.305267 304.174973,291.858946 298.246813,292.323009 C294.970499,292.579879 291.589329,288.744127 291.131029,284.381247 C291.109022,284.166464 290.944872,282.411545 290.886409,281.852826 C290.834518,281.356903 290.783278,280.919175 290.731712,280.538447 C288.281755,283.236406 283.953064,287.520939 281.84616,289.19051 Z M292.686485,259.39722 C290.464263,259.39722 287.205544,261.148871 284.588009,264.123807 C279.80892,269.307454 276.175402,275.995887 275.806823,279.945591 C275.541918,282.782056 276.348698,285.222237 278.542448,285.222237 C279.810657,285.222237 282.0519,284.194249 284.050083,282.65025 C288.169398,279.468883 294.525863,270.451072 295.552852,266.505897 C295.589036,266.366632 295.735045,265.829897 295.75094,265.770388 C295.913962,265.160061 296.016961,264.703914 296.084811,264.233441 C296.177323,263.591951 296.186182,263.007919 296.087475,262.457999 C295.760681,260.635527 294.637683,259.39722 292.789819,259.39722 L292.686485,259.39722 Z M326.671591,263.969853 C326.604556,263.85941 326.340101,263.466752 326.34942,263.481074 C326.158073,263.187008 326.044835,262.958982 326.003832,262.725247 C325.705481,261.520509 325.807485,260.17509 326.436043,258.938922 C326.450168,258.915131 327.227957,257.538039 327.521307,257.063814 C328.736029,255.100123 329.865828,253.997905 331.383437,253.997905 C334.083312,253.997905 335.428291,258.919537 335.113591,262.753346 C335.024849,264.107686 334.736357,265.836942 333.971047,269.939246 C333.180728,274.175168 332.914269,275.753999 332.832284,276.964011 C332.694293,278.488764 332.774085,280.202219 333.029507,281.546755 C333.138669,282.121381 333.273879,282.590191 333.412841,282.899419 C334.144118,282.574032 335.585347,281.296816 337.324963,279.232318 C339.533937,276.610808 342.13001,272.896812 344.771527,268.556237 C345.367807,267.631802 345.782682,266.450413 346.040517,265.041566 C346.304715,263.597952 346.370167,262.410782 346.39247,260.162004 C346.401281,259.273542 346.411457,258.945595 346.455197,258.619619 C346.794144,256.103069 350.516675,253.541498 352.410622,253.541498 C354.179593,253.541498 356.098474,256.082766 356.098474,258.159736 C356.098474,259.402392 355.237927,262.106539 354.053912,264.500295 C350.722598,271.41514 345.895837,279.752167 342.142516,283.871918 C341.797655,284.249184 341.439959,284.63324 341.066489,285.027577 C341.055219,285.039477 329.930367,296.094742 326.470076,300.064394 C322.019462,305.170973 318.110659,310.378321 317.796197,310.551586 C317.488577,310.721081 317.195639,310.776753 316.839844,310.776753 C314.516015,310.776753 313.055131,309.090039 313.79942,306.959127 C314.292501,305.07713 317.927558,299.818589 321.224518,296.231323 C321.991237,295.379236 323.307708,294.076182 326.243925,291.226956 C326.876741,290.612907 327.368206,290.135807 327.781272,289.73426 C327.223325,289.955427 327.010947,289.992956 326.742622,289.992956 C325.262697,289.992956 324.80252,288.863523 324.916718,287.262322 C324.951003,286.781608 325.031734,286.224374 325.170944,285.448149 C325.236916,285.08029 325.51556,283.611236 325.5762,283.279959 C325.975536,281.098379 326.183308,279.447837 326.21482,277.711687 L327.04087,265.510769 C327.073856,264.862013 326.947217,264.423957 326.671591,263.969853 Z M67.9168043,246.112815 L102.523396,246.112815 C106.857719,246.112815 110.376115,249.596165 110.376115,253.887965 L110.376115,258.629415 L100.274987,259.338965 L100.274987,254.628565 L70.0672555,254.628565 L70.0672555,282.724215 L100.274987,282.724215 L100.274987,272.821565 L86.1979445,272.821565 L86.1979445,264.304665 L110.27931,264.304665 L110.27931,268.756315 L110.376115,268.756315 L110.376115,283.400415 C110.376115,287.691065 106.857719,291.174415 102.523396,291.174415 L67.9168043,291.174415 C63.5824811,291.174415 60.0952006,287.691065 60.0952006,283.400415 L60.0952006,253.887965 C60.0952006,249.596165 63.5824811,246.112815 67.9168043,246.112815 Z M119.59897,246.1127 L161.993744,246.1127 C166.360335,246.1127 169.847616,249.59605 169.847616,253.88785 L169.847616,260.8212 C169.847616,265.11185 166.360335,268.56415 162.027165,268.56415 C166.360335,268.56415 169.847616,272.0153 169.847616,276.337 L169.847616,291.1743 L161.993744,291.1743 L159.778756,291.1743 L159.778756,272.82145 L129.571024,272.82145 L129.571024,291.1743 L127.419421,291.1743 L119.59897,291.1743 L119.59897,246.1127 Z M129.571024,264.3057 L159.778756,264.3057 L159.778756,254.56405 L129.571024,254.56405 L129.571024,264.3057 Z M179.069202,258.67691 L188.975568,258.67691 L188.975568,286.27116 L188.975568,291.17476 L184.054654,291.17476 C181.285343,291.17476 179.069202,289.01391 179.069202,286.27116 L179.069202,274.11106 L179.069202,258.67691 Z M188.975223,254.55646 L179.068857,254.55646 L179.068857,251.04896 L179.068857,246.11316 L184.054308,246.11316 L184.152265,246.11316 C186.85704,246.17641 188.975223,248.37176 188.975223,251.04896 L188.975223,254.55646 Z M180.549177,149.798368 C180.291815,149.798368 179.780048,149.798368 179.411753,149.799802 C179.043458,149.799802 178.531691,149.799802 178.274328,149.799802 C178.015486,149.799802 176.317485,150.399237 174.499676,151.13204 L168.76818,153.440869 C166.950372,154.172237 164.035074,155.493002 162.289741,156.374946 L151.748226,161.699594 C150.002894,162.581538 149.890482,164.203454 151.49678,165.304809 L160.643508,171.571631 C162.251285,172.672985 164.784976,174.593186 166.274425,175.840814 L168.846572,177.994765 C170.336022,179.242393 188.521503,179.190767 190.003557,177.935969 L192.591974,175.746166 C194.074028,174.491368 196.597365,172.556827 198.199226,171.446868 L207.354828,165.096871 C208.95521,163.986912 208.829487,162.372166 207.075279,161.50743 L196.55743,156.327622 C194.803222,155.462887 191.87905,154.15933 190.061242,153.429396 L184.325309,151.126303 C182.506021,150.396369 180.808019,149.798368 180.549177,149.798368 Z M248.324006,92.0774813 C248.351787,90.998165 248.243589,89.3070903 248.084215,88.3195377 C247.924842,87.3305285 245.825208,83.6279344 244.734452,82.0242538 L238.887352,73.4275936 C237.795133,71.823913 235.908972,69.2720071 234.693933,67.7571771 L226.810071,57.928261 C225.596495,56.4148875 224.540829,55.1870013 224.46626,55.201567 C224.298114,55.1870013 222.726313,55.4768582 220.815295,55.8439131 L208.764333,58.1642249 C206.853316,58.5312798 204.480262,58.9857288 203.490393,59.173626 C202.500523,59.3615232 200.17572,59.0279693 198.32465,58.4322332 L188.804653,55.3705288 C186.952121,54.7747927 183.886013,53.9299837 181.991079,53.4944701 C181.991079,53.4944701 181.157659,53.3036598 178.979069,53.3371608 C176.801942,53.3051163 175.968522,53.4988398 175.968522,53.4988398 C174.073588,53.9372665 171.007479,54.7835321 169.157872,55.3821813 L159.640799,58.4555383 C157.789729,59.0527309 155.464926,59.3906545 154.475057,59.2042139 C153.485188,59.0177733 151.112134,58.5662374 149.201116,58.200639 L137.14723,55.8963496 C135.236212,55.5307512 133.662949,55.2438074 133.652714,55.2569165 C133.420234,55.2438074 132.367493,56.4716937 131.153916,57.9879802 L123.283214,67.8256358 C122.069637,69.3419223 120.1864,71.8952848 119.097106,73.5018785 L113.261703,82.104365 C112.172408,83.7109588 110.920816,85.7851106 110.480712,86.7144005 C110.040607,87.6436905 109.654602,91.0841024 109.682383,92.1619623 C109.682383,92.1619623 109.682383,92.1619623 109.979197,93.098535 C110.451469,94.7808703 110.520189,94.8668077 110.520189,94.8668077 C111.739615,96.3787246 113.827551,98.7689515 115.161023,100.180365 C130.104099,117.397962 137.322687,126.602011 136.816786,127.792512 L133.443628,135.746826 C132.686239,137.532577 132.616057,140.482126 133.287179,142.301378 L133.969999,144.151219 C135.075377,147.151748 136.973235,149.801244 139.461798,151.818589 L142.700439,154.446237 C144.209368,155.669753 146.880699,155.988741 148.63673,155.154128 L160.137927,149.692001 C161.89542,148.858844 164.514113,147.113877 165.958708,145.816075 L175.173118,137.532577 C176.204414,136.605229 169.338202,130.195848 154.574482,118.304432 C152.961741,117.220746 152.388582,114.935392 153.30242,113.223925 L161.364663,98.1266054 C162.278501,96.4151388 162.453958,93.7161196 161.756517,92.1284612 C161.057613,90.5408028 158.995995,88.6807664 157.17563,87.9961798 L131.909843,78.489165 C130.089478,77.8045784 130.185979,77.0952301 132.121853,76.9117026 L146.958193,75.5119414 C148.894067,75.3284139 152.012812,75.6051617 153.887276,76.1251563 L166.808212,79.7126815 C168.682676,80.2341326 169.929882,82.2194338 169.578968,84.1260804 L164.505341,111.729487 C164.154427,113.636134 164.04038,115.732134 164.250928,116.389046 C164.461476,117.044501 166.191189,117.911159 168.093433,118.316085 L175.959749,119.986767 C177.863456,120.391693 180.971967,120.371301 182.869825,119.941614 L189.945123,118.342303 C191.842981,117.912616 193.566845,117.025566 193.777393,116.370111 C193.987942,115.714656 193.87097,113.618655 193.518594,111.712009 L188.417186,84.1129713 C188.06481,82.2063247 189.309092,80.2195669 191.182094,79.6966593 L204.098643,76.0931118 C205.971645,75.5702041 209.090391,75.2905432 211.027727,75.4711575 L225.864066,76.8548965 C227.801403,77.0355108 227.897904,77.7463157 226.077539,78.4338154 L200.823448,87.9714181 C199.004546,88.6574613 196.945852,90.5204109 196.249873,92.1095258 C195.552432,93.6971842 195.732275,96.39766 196.647575,98.10767 L204.727363,113.197707 C205.642663,114.907717 205.072429,117.194528 203.46115,118.279671 C188.713026,130.186623 181.854612,136.602802 182.885909,137.528207 L192.110553,145.798597 C193.558072,147.096398 196.178228,148.836996 197.935721,149.668696 L209.444229,155.116258 C211.201722,155.949414 213.873052,155.626056 215.380519,154.401083 L218.617698,151.769066 C221.103337,149.747351 222.996809,147.097855 224.097801,144.095869 L224.777696,142.244572 C225.445894,140.423863 225.371325,137.475771 224.612474,135.69002 L221.229081,127.740075 C220.72318,126.550545 227.93202,117.337757 242.855601,100.101711 C244.187611,98.6888403 246.274086,96.2957003 247.490586,94.7823268 C247.490586,94.7823268 247.559307,94.6963894 248.030116,93.0140541 C248.324006,92.0774813 248.324006,92.0774813 248.324006,92.0774813 Z" id="path-1"></path>
        <linearGradient x1="48.2214164%" y1="0%" x2="48.2214153%" y2="102.82859%" id="linearGradient-3">
            <stop stop-color="#C3C3C3" offset="0%"></stop>
            <stop stop-color="#555555" offset="100%"></stop>
        </linearGradient>
    </defs>
    <g id="Page-1" stroke="none" stroke-width="1" fill="none" fill-rule="evenodd">
        <g id="logo-agriway-greygradient-onwhite">
            <g id="Rectangle-2" transform="translate(72.000000, 99.000000)">
                <mask id="mask-2" fill="white">
                    <use xlink:href="#path-1"></use>
                </mask>
                <use id="Mask" fill="#FFFFFF" xlink:href="#path-1"></use>
                <rect fill="url(#linearGradient-3)" mask="url(#mask-2)" x="-72" y="-99" width="500" height="500"></rect>
            </g>
        </g>
    </g>
</svg>