<svg xmlns="http://www.w3.org/2000/svg" xmlns:xlink="http://www.w3.org/1999/xlink" viewBox="0 0 500 500"><defs><style>.cls-1{isolation:isolate;}.cls-2{fill:#3b3b3c;}.cls-3,.cls-5,.cls-6{mix-blend-mode:multiply;}.cls-4,.cls-5{fill:#3c3c3b;}.cls-6{fill:#1a1a1a;}.cls-7{fill:url(#Dégradé_sans_nom_37);}.cls-8{fill:url(#Dégradé_sans_nom_38);}.cls-9{fill:url(#Dégradé_sans_nom_4);}.cls-10{fill:url(#Dégradé_sans_nom_43);}.cls-11{fill:url(#Dégradé_sans_nom_43-2);}.cls-12{fill:url(#Dégradé_sans_nom_43-3);}.cls-13{fill:url(#Dégradé_sans_nom_43-4);}.cls-14{fill:url(#Dégradé_sans_nom_43-5);}</style><linearGradient id="Dégradé_sans_nom_37" x1="292.41" y1="86.97" x2="95.68" y2="367.47" gradientUnits="userSpaceOnUse"><stop offset="0" stop-color="gray"/><stop offset="0.42" stop-color="#d9d9d9"/><stop offset="0.81" stop-color="#9c9b9b"/><stop offset="1" stop-color="#666"/></linearGradient><linearGradient id="Dégradé_sans_nom_38" x1="383.61" y1="150.94" x2="186.89" y2="431.44" gradientUnits="userSpaceOnUse"><stop offset="0" stop-color="#666"/><stop offset="0.42" stop-color="#d9d9d9"/><stop offset="0.75" stop-color="#868686"/><stop offset="1" stop-color="#666"/></linearGradient><linearGradient id="Dégradé_sans_nom_4" x1="340.73" y1="120.86" x2="144.01" y2="401.36" gradientUnits="userSpaceOnUse"><stop offset="0" stop-color="#b3b3b3"/><stop offset="0.42" stop-color="#f2f2f2"/><stop offset="0.75" stop-color="#c6c6c5"/><stop offset="1" stop-color="#999"/></linearGradient><linearGradient id="Dégradé_sans_nom_43" x1="264.7" y1="146.2" x2="106" y2="372.83" gradientUnits="userSpaceOnUse"><stop offset="0" stop-color="gray"/><stop offset="0.42" stop-color="#e6e6e6"/><stop offset="0.75" stop-color="#9c9b9b"/><stop offset="1" stop-color="gray"/></linearGradient><linearGradient id="Dégradé_sans_nom_43-2" x1="279.64" y1="154.5" x2="120.05" y2="382.43" xlink:href="#Dégradé_sans_nom_43"/><linearGradient id="Dégradé_sans_nom_43-3" x1="297.9" y1="166.11" x2="137.94" y2="394.55" xlink:href="#Dégradé_sans_nom_43"/><linearGradient id="Dégradé_sans_nom_43-4" x1="316.89" y1="178.52" x2="156.79" y2="407.17" xlink:href="#Dégradé_sans_nom_43"/><linearGradient id="Dégradé_sans_nom_43-5" x1="333" y1="190.17" x2="173.59" y2="417.82" xlink:href="#Dégradé_sans_nom_43"/></defs><title>logo-gb-groub-grey-oncolor</title><g class="cls-1"><g id="Calque_1" data-name="Calque 1"><rect class="cls-2" width="500" height="500"/><g class="cls-3"><path class="cls-4" d="M130.51,339.44a4.5,4.5,0,0,0-.38-1.4c-.25-.25-.51-.64-.76-.76a3.19,3.19,0,0,0-.89-.51,2.8,2.8,0,0,0-1-.13,4,4,0,0,0-3.18,1.14,5.13,5.13,0,0,0-1,3.31,7,7,0,0,0,.89,3.56,3.46,3.46,0,0,0,2.8,1.27,4,4,0,0,0,2.54-.76,2,2,0,0,0,1-1.78ZM126.7,353.3c2.67-.38,3.69-3.43,3.69-5.85a3.29,3.29,0,0,1-1.4.89,6.26,6.26,0,0,1-2.54.38,7.69,7.69,0,0,1-3.05-.64,6.56,6.56,0,0,1-2.16-1.65,8,8,0,0,1-1.65-5.34,6.93,6.93,0,0,1,.64-2.8,5.32,5.32,0,0,1,1.4-2.29,5.89,5.89,0,0,1,2.29-1.65,6.47,6.47,0,0,1,2.8-.51,8.86,8.86,0,0,1,2,.25,5,5,0,0,1,1.78,1V334h3.56v12.33a17.41,17.41,0,0,1-.51,4.58,6.82,6.82,0,0,1-1.27,2.54,8.33,8.33,0,0,1-2.29,1.91,9.16,9.16,0,0,1-3.31,1Z"/><path class="cls-4" d="M157.1,337a12.15,12.15,0,0,0-2.67-.38,2.23,2.23,0,0,0-2,.89,3.52,3.52,0,0,0-.64,2v9.28H148.2V334h3.56v1.78a2.31,2.31,0,0,1,1.27-1.4,4.18,4.18,0,0,1,2.16-.51,4.65,4.65,0,0,1,1.91.38Z"/><path class="cls-4" d="M176.31,336.64a3.13,3.13,0,0,0-2.8,1.27,5,5,0,0,0-1,3.43c0,3.05,1.27,4.58,3.94,4.58s3.82-1.53,3.82-4.58-1.27-4.7-3.94-4.7Zm0,12.08a7.54,7.54,0,0,1-5.47-1.91,7.85,7.85,0,0,1-1.91-5.59,7.46,7.46,0,0,1,.51-2.92,9.67,9.67,0,0,1,1.53-2.42,7.22,7.22,0,0,1,2.29-1.53,8.75,8.75,0,0,1,3.05-.64,7.69,7.69,0,0,1,3.05.64,6.57,6.57,0,0,1,2.42,1.53,7.82,7.82,0,0,1,1.53,2.42,7.46,7.46,0,0,1,.51,2.92,7.74,7.74,0,0,1-1.91,5.47,7.22,7.22,0,0,1-5.6,2Z"/><path class="cls-4" d="M207.48,346.81a5.63,5.63,0,0,1-1.91,1.53,9.93,9.93,0,0,1-2.8.38,5,5,0,0,1-3.94-1.4,4.7,4.7,0,0,1-1.53-3.69v-10h3.56v9a3.66,3.66,0,0,0,.76,2.42,3.16,3.16,0,0,0,2.29.89,4.1,4.1,0,0,0,2.54-.89,3.25,3.25,0,0,0,1-2.42v-9H211v15.26h-3.56Z"/><path class="cls-4" d="M229.74,336.64a3.52,3.52,0,0,0-1.14.13c-.38.25-.76.38-1.14.64a3,3,0,0,0-.89.89,3.23,3.23,0,0,0-.25.89v4.07a2.36,2.36,0,0,0,.25.89,5.53,5.53,0,0,0,.76.89,11.82,11.82,0,0,0,1.27.64,3.77,3.77,0,0,0,1.27.25,3.7,3.7,0,0,0,1.78-.38,3.46,3.46,0,0,0,1.27-1,6.38,6.38,0,0,0,.64-1.65,9.81,9.81,0,0,0,.25-1.91,7.5,7.5,0,0,0-.25-1.78,4.7,4.7,0,0,0-.64-1.4,4.57,4.57,0,0,0-1.27-.89,4.35,4.35,0,0,0-1.91-.25Zm.25,12.08a5,5,0,0,1-1.91-.25,3.15,3.15,0,0,1-1.78-1v9h-3.56V334h3.56v1.65a3.52,3.52,0,0,1,1.65-1.4,5,5,0,0,1,2.29-.51,10.94,10.94,0,0,1,3.05.51,5.53,5.53,0,0,1,2.16,1.53,5.4,5.4,0,0,1,1.27,2.16,10.82,10.82,0,0,1,.51,2.92,12.78,12.78,0,0,1-.51,3.18,9.53,9.53,0,0,1-1.27,2.54,7.55,7.55,0,0,1-2.29,1.65,8.36,8.36,0,0,1-3.18.51Z"/></g><path class="cls-5" d="M283.82,274.49V228h64.25a7.69,7.69,0,0,1,5.34,1.65,6.61,6.61,0,0,1,1.91,5.09q0,4-1.53,5.72a7.77,7.77,0,0,1-5.72,2.29H299.21v17h48.85a6.91,6.91,0,0,1,5.72,2.29c1,1.14,1.53,2.92,1.53,5.47a7,7,0,0,1-1.91,5.34,7.69,7.69,0,0,1-5.34,1.65Zm85.24-24.16a13.17,13.17,0,0,0,7.89-7,25.54,25.54,0,0,0,2.93-13.1c.13-8.14-2.16-14.24-6.74-18.56-4.58-4.07-11.07-6.1-19.59-6.1H260.29v91.16h93.25c8.52,0,14.63-2,18.32-5.85q8.21-6.67,8-18.69a31,31,0,0,0-2.8-14.24,17.33,17.33,0,0,0-8.4-8.14Z"/><path class="cls-5" d="M199.35,242.07v18.31h13.49l-.51.64c-1.14,4.58-3.31,7.88-6.62,10s-8.27,3.05-15,2.92H143.37V251.74c0-9.15,1.27-15.13,3.82-18.18,3.69-3.69,10.05-5.47,18.83-5.47h71.62v-22.5h-72c-14.38,0-25.7,3.94-33.71,12.08S120,236.73,120,251v45.77h71.88c7.89,0,14.5-.89,20-2.67a29,29,0,0,0,13.87-9c3.69-4.07,6.49-9.54,8.4-16.27s3.31-15.64,3.94-26.7Z"/><path class="cls-6" d="M158.07,144.76c-59.79,0-98.72,37.38-98.72,95.86v.89H67v-1a107.13,107.13,0,0,1,2.85-24.75,64.06,64.06,0,0,1,17.25-28.52c12.47-12.08,30.66-19.71,55.85-19.71h275.3v92.56c0,25.56-7,43-18.32,54.42s-28.37,18.56-54.32,18.56H259.46v22.89h86.13c60.81,0,95.41-35.85,95.41-95.86V144.76Z"/><path class="cls-7" d="M198.74,240.84v18.31h13.49l-.51.64c-1.14,4.58-3.31,7.88-6.62,10s-8.27,3.05-15,2.92H142.76V250.5c0-9.15,1.27-15.13,3.82-18.18,3.69-3.69,10.05-5.47,18.83-5.47H237v-22.5H165c-14.38,0-25.7,3.94-33.71,12.08s-12,19.07-12,33.31v45.77h71.88c7.89,0,14.5-.89,20-2.67a29,29,0,0,0,13.87-9c3.69-4.07,6.49-9.54,8.4-16.27s3.31-15.64,3.94-26.7Z"/><path class="cls-8" d="M283.48,273.26V226.72h64.25a7.69,7.69,0,0,1,5.34,1.65,6.61,6.61,0,0,1,1.91,5.09q0,4-1.53,5.72a7.77,7.77,0,0,1-5.72,2.29H298.87v17h48.85a6.91,6.91,0,0,1,5.72,2.29c1,1.14,1.53,2.92,1.53,5.47a7,7,0,0,1-1.91,5.34,7.69,7.69,0,0,1-5.34,1.65Zm85.24-24.16a13.17,13.17,0,0,0,7.89-7,25.54,25.54,0,0,0,2.93-13.1c.13-8.14-2.16-14.24-6.74-18.56-4.58-4.07-11.07-6.1-19.59-6.1H259.94v91.16h93.25c8.52,0,14.63-2,18.32-5.85q8.21-6.67,8-18.69a31,31,0,0,0-2.8-14.24,17.33,17.33,0,0,0-8.4-8.14Z"/><path class="cls-9" d="M157.72,143.52C97.93,143.52,59,180.9,59,239.39v.89h7.63v-1a107.13,107.13,0,0,1,2.85-24.75A64.06,64.06,0,0,1,86.73,186c12.47-12.08,30.66-19.71,55.85-19.71h275.3v92.56c0,25.56-7,43-18.32,54.42s-28.37,18.56-54.32,18.56H259.11v22.89h86.13c60.81,0,95.41-35.85,95.41-95.86V143.52Z"/><path class="cls-10" d="M130.17,338.2a4.5,4.5,0,0,0-.38-1.4c-.25-.25-.51-.64-.76-.76a3.19,3.19,0,0,0-.89-.51,2.8,2.8,0,0,0-1-.13,4,4,0,0,0-3.18,1.14,5.13,5.13,0,0,0-1,3.31,7,7,0,0,0,.89,3.56,3.46,3.46,0,0,0,2.8,1.27,4,4,0,0,0,2.54-.76,2,2,0,0,0,1-1.78Zm-3.82,13.86c2.67-.38,3.69-3.43,3.69-5.85a3.29,3.29,0,0,1-1.4.89,6.26,6.26,0,0,1-2.54.38,7.69,7.69,0,0,1-3.05-.64,6.56,6.56,0,0,1-2.16-1.65,8,8,0,0,1-1.65-5.34,6.93,6.93,0,0,1,.64-2.8,5.32,5.32,0,0,1,1.4-2.29,5.89,5.89,0,0,1,2.29-1.65,6.47,6.47,0,0,1,2.8-.51,8.86,8.86,0,0,1,2,.25,5,5,0,0,1,1.78,1v-1.14h3.56v12.33a17.41,17.41,0,0,1-.51,4.58,6.82,6.82,0,0,1-1.27,2.54,8.33,8.33,0,0,1-2.29,1.91,9.16,9.16,0,0,1-3.31,1Z"/><path class="cls-11" d="M156.76,335.79a12.15,12.15,0,0,0-2.67-.38,2.23,2.23,0,0,0-2,.89,3.52,3.52,0,0,0-.64,2v9.28h-3.56V332.74h3.56v1.78a2.31,2.31,0,0,1,1.27-1.4,4.18,4.18,0,0,1,2.16-.51,4.65,4.65,0,0,1,1.91.38Z"/><path class="cls-12" d="M176,335.41a3.13,3.13,0,0,0-2.8,1.27,5,5,0,0,0-1,3.43c0,3.05,1.27,4.58,3.94,4.58s3.82-1.53,3.82-4.58-1.27-4.7-3.94-4.7Zm0,12.08a7.54,7.54,0,0,1-5.47-1.91,7.85,7.85,0,0,1-1.91-5.59,7.46,7.46,0,0,1,.51-2.92,9.67,9.67,0,0,1,1.53-2.42,7.22,7.22,0,0,1,2.29-1.53,8.75,8.75,0,0,1,3.05-.64,7.69,7.69,0,0,1,3.05.64,6.57,6.57,0,0,1,2.42,1.53,7.82,7.82,0,0,1,1.53,2.42,7.46,7.46,0,0,1,.51,2.92,7.74,7.74,0,0,1-1.91,5.47,7.22,7.22,0,0,1-5.6,2Z"/><path class="cls-13" d="M207.14,345.58a5.63,5.63,0,0,1-1.91,1.53,9.93,9.93,0,0,1-2.8.38,5,5,0,0,1-3.94-1.4A4.7,4.7,0,0,1,197,342.4v-10h3.56v9a3.66,3.66,0,0,0,.76,2.42,3.16,3.16,0,0,0,2.29.89,4.1,4.1,0,0,0,2.54-.89,3.25,3.25,0,0,0,1-2.42v-9h3.56v15.26h-3.56Z"/><path class="cls-14" d="M229.4,335.41a3.52,3.52,0,0,0-1.14.13c-.38.25-.76.38-1.14.64a3,3,0,0,0-.89.89,3.23,3.23,0,0,0-.25.89V342a2.36,2.36,0,0,0,.25.89,5.53,5.53,0,0,0,.76.89,11.82,11.82,0,0,0,1.27.64,3.77,3.77,0,0,0,1.27.25,3.7,3.7,0,0,0,1.78-.38,3.46,3.46,0,0,0,1.27-1,6.38,6.38,0,0,0,.64-1.65,9.81,9.81,0,0,0,.25-1.91,7.5,7.5,0,0,0-.25-1.78,4.7,4.7,0,0,0-.64-1.4,4.57,4.57,0,0,0-1.27-.89,4.35,4.35,0,0,0-1.91-.25Zm.25,12.08a5,5,0,0,1-1.91-.25,3.15,3.15,0,0,1-1.78-1v9H222.4v-22.5H226v1.65a3.52,3.52,0,0,1,1.65-1.4,5,5,0,0,1,2.29-.51A10.94,10.94,0,0,1,233,333a5.53,5.53,0,0,1,2.16,1.53,5.4,5.4,0,0,1,1.27,2.16,10.82,10.82,0,0,1,.51,2.92,12.78,12.78,0,0,1-.51,3.18,9.53,9.53,0,0,1-1.27,2.54,7.55,7.55,0,0,1-2.29,1.65,8.36,8.36,0,0,1-3.18.51Z"/></g></g></svg>